<svg width="176" height="52" viewBox="0 0 176 52" fill="none" xmlns="http://www.w3.org/2000/svg">
<path d="M174.751 45.8599C174.751 46.5144 174.622 47.1625 174.372 47.767C174.121 48.3716 173.754 48.9209 173.29 49.3834C172.827 49.846 172.277 50.2127 171.672 50.4627C171.067 50.7127 170.419 50.841 169.764 50.8403H6.56664C5.24391 50.8417 3.97479 50.3178 3.03839 49.3838C2.10198 48.4499 1.57497 47.1823 1.57324 45.8599V6.14312C1.57497 4.82015 2.10177 3.55193 3.03799 2.61693C3.97421 1.68194 5.24331 1.15659 6.56664 1.15625H169.763C170.418 1.15625 171.067 1.28525 171.672 1.53588C172.277 1.78651 172.827 2.15386 173.29 2.61695C173.753 3.08004 174.12 3.6298 174.371 4.23483C174.621 4.83985 174.75 5.4883 174.75 6.14312L174.751 45.8599Z" fill="white"/>
<path d="M169.765 52H6.56704C4.93759 51.9997 3.37483 51.3531 2.22166 50.2022C1.0685 49.0513 0.419116 47.49 0.416016 45.861L0.416016 6.14549C0.418426 4.51567 1.06738 2.95335 2.22051 1.80126C3.37364 0.649163 4.93678 0.00137563 6.56704 0L169.764 0C171.394 0.00206204 172.956 0.650069 174.109 1.80201C175.262 2.95396 175.911 4.51588 175.915 6.14549V45.861C175.917 49.2471 173.153 52 169.765 52Z" fill="#A6A6A6"/>
<path d="M174.751 45.8599C174.751 46.5144 174.622 47.1625 174.372 47.767C174.121 48.3716 173.754 48.9209 173.29 49.3834C172.827 49.846 172.277 50.2127 171.672 50.4627C171.067 50.7127 170.419 50.841 169.764 50.8403H6.56664C5.24391 50.8417 3.97479 50.3178 3.03839 49.3838C2.10198 48.4499 1.57497 47.1823 1.57324 45.8599V6.14312C1.57497 4.82015 2.10177 3.55193 3.03799 2.61693C3.97421 1.68194 5.24331 1.15659 6.56664 1.15625H169.763C170.418 1.15625 171.067 1.28525 171.672 1.53588C172.277 1.78651 172.827 2.15386 173.29 2.61695C173.753 3.08004 174.12 3.6298 174.371 4.23483C174.621 4.83985 174.75 5.4883 174.75 6.14312L174.751 45.8599Z" fill="black"/>
<path d="M39.6033 25.7279C39.5656 21.5368 43.0359 19.4979 43.1945 19.4029C41.2292 16.5383 38.1829 16.1469 37.1125 16.1156C34.554 15.8465 32.0722 17.6462 30.7689 17.6462C29.4396 17.6462 27.4326 16.1417 25.2696 16.1859C22.4861 16.2288 19.8821 17.8399 18.4539 20.3418C15.5065 25.4431 17.7047 32.9397 20.5285 37.0631C21.9411 39.0839 23.5917 41.3374 25.7521 41.2581C27.8658 41.1722 28.6553 39.9122 31.206 39.9122C33.7332 39.9122 34.4746 41.2581 36.678 41.2073C38.9464 41.1722 40.3746 39.1788 41.7377 37.1411C43.3701 34.8278 44.0257 32.547 44.0517 32.4299C43.9997 32.4117 39.6475 30.7499 39.6033 25.7279ZM35.441 13.4031C36.5779 11.9818 37.3557 10.0482 37.1398 8.08594C35.4944 8.15876 33.4367 9.22375 32.2517 10.6138C31.2034 11.8388 30.2669 13.8465 30.5088 15.7346C32.3571 15.8725 34.2548 14.8023 35.441 13.4031Z" fill="white"/>
<path d="M169.765 0H82.3511L116.589 52H169.765C171.395 51.9986 172.957 51.3512 174.11 50.1997C175.263 49.0481 175.913 47.4865 175.916 45.8571V6.14549C175.913 4.51577 175.264 2.95365 174.111 1.80164C172.958 0.649616 171.395 0.00171896 169.765 0Z" fill="url(#paint0_linear_7238_1249)"/>
<path d="M70.2169 40.9656H67.263L65.6449 35.8825H60.0207L58.4794 40.9656H55.6035L61.177 23.6605H64.6187L70.2169 40.9656ZM65.1572 33.7499L63.6939 29.2312C63.5391 28.7696 63.2477 27.6825 62.8211 25.9712H62.7691C62.5974 26.7072 62.3229 27.7943 61.947 29.2312L60.5085 33.7499H65.1572ZM84.522 34.5731C84.522 36.6953 83.9458 38.3727 82.7921 39.6042C81.7593 40.7004 80.4755 41.2478 78.9446 41.2478C77.2914 41.2478 76.1026 40.6587 75.3807 39.478V46.0253H72.6076V32.5887C72.6076 31.2559 72.5725 29.8892 72.5048 28.4874H74.9437L75.0984 30.4652H75.1505C76.0753 28.975 77.4787 28.2299 79.3621 28.2299C80.8345 28.2299 82.0637 28.8112 83.047 29.975C84.0291 31.1414 84.522 32.6732 84.522 34.5731ZM81.6969 34.6745C81.6969 33.46 81.4238 32.4587 80.8749 31.6694C80.2752 30.8488 79.4701 30.4379 78.4608 30.4379C77.7766 30.4379 77.1548 30.6668 76.5994 31.118C76.0427 31.5731 75.6786 32.1674 75.5082 32.9034C75.4321 33.1787 75.3889 33.4619 75.3794 33.7473V35.8292C75.3794 36.7356 75.6577 37.5015 76.2144 38.1282C76.7711 38.7524 77.4943 39.0658 78.384 39.0658C79.4285 39.0658 80.2414 38.6614 80.8228 37.8591C81.4055 37.0542 81.6969 35.9931 81.6969 34.6745ZM98.8779 34.5731C98.8779 36.6953 98.3017 38.3727 97.1479 39.6042C96.1139 40.7004 94.8314 41.2478 93.2992 41.2478C91.646 41.2478 90.4571 40.6587 89.7352 39.478V46.0253H86.9621V32.5887C86.9621 31.2559 86.927 29.8892 86.8594 28.4874H89.2982L89.453 30.4652H89.505C90.4285 28.975 91.832 28.2299 93.7167 28.2299C95.1878 28.2299 96.417 28.8112 97.4029 29.975C98.3836 31.1414 98.8779 32.6732 98.8779 34.5731ZM96.0515 34.6745C96.0515 33.46 95.777 32.4587 95.2281 31.6694C94.6285 30.8488 93.826 30.4379 92.8166 30.4379C92.1324 30.4379 91.5107 30.6668 90.9527 31.118C90.396 31.5731 90.0331 32.1674 89.8627 32.9034C89.7782 33.2467 89.7326 33.5263 89.7326 33.7473V35.8292C89.7326 36.7356 90.0123 37.5015 90.5664 38.1282C91.1231 38.7511 91.8463 39.0658 92.7386 39.0658C93.7843 39.0658 94.5973 38.6614 95.1774 37.8591C95.7601 37.0542 96.0515 35.9931 96.0515 34.6745ZM114.929 36.1114C114.929 37.5847 114.413 38.7823 113.39 39.7069C112.263 40.716 110.691 41.2218 108.675 41.2218C106.812 41.2218 105.319 40.8629 104.193 40.1438L104.834 37.8331C106.05 38.5535 107.386 38.9124 108.84 38.9124C109.886 38.9124 110.699 38.6757 111.279 38.2063C111.86 37.7355 112.154 37.1062 112.154 36.3207C112.154 35.6173 111.911 35.0282 111.434 34.5484C110.954 34.0698 110.16 33.6238 109.045 33.2142C106.015 32.0842 104.498 30.4314 104.498 28.2572C104.498 26.8372 105.034 25.6747 106.103 24.7658C107.172 23.8581 108.59 23.4043 110.354 23.4043C111.929 23.4043 113.242 23.6787 114.283 24.2261L113.588 26.4861C112.607 25.9556 111.5 25.6903 110.262 25.6903C109.284 25.6903 108.516 25.9309 107.967 26.4094C107.505 26.8372 107.271 27.3587 107.271 27.9777C107.271 28.6603 107.538 29.2273 108.069 29.672C108.529 30.0816 109.369 30.5277 110.584 31.0062C112.075 31.607 113.17 32.3065 113.871 33.1102C114.577 33.9138 114.929 34.9164 114.929 36.1114ZM124.121 30.568H121.064V36.6263C121.064 38.1673 121.602 38.9358 122.682 38.9358C123.178 38.9358 123.589 38.8942 123.914 38.807L123.991 40.9123C123.444 41.1165 122.725 41.2192 121.834 41.2192C120.739 41.2192 119.883 40.885 119.265 40.2166C118.65 39.5482 118.34 38.4286 118.34 36.8526V30.5628H116.519V28.4822H118.34V26.1975L121.064 25.3756V28.4822H124.121V30.568ZM137.885 34.6238C137.885 36.5418 137.336 38.1165 136.241 39.348C135.095 40.6158 133.57 41.2478 131.67 41.2478C129.836 41.2478 128.378 40.6405 127.29 39.4273C126.203 38.2115 125.659 36.6796 125.659 34.8318C125.659 32.8982 126.221 31.3144 127.341 30.0829C128.464 28.8502 129.975 28.2338 131.875 28.2338C133.707 28.2338 135.178 28.8424 136.291 30.0569C137.355 31.235 137.885 32.7565 137.885 34.6238ZM135.01 34.6875C135.01 33.5445 134.763 32.564 134.267 31.7435C133.686 30.7526 132.854 30.2572 131.775 30.2572C130.664 30.2572 129.812 30.7526 129.232 31.7435C128.736 32.564 128.488 33.5614 128.488 34.7395C128.488 35.8838 128.736 36.8669 129.232 37.6848C129.832 38.6757 130.668 39.1711 131.752 39.1711C132.812 39.1711 133.643 38.6653 134.244 37.6601C134.754 36.8201 135.01 35.8331 135.01 34.6875ZM146.902 30.9256C146.614 30.8735 146.321 30.8478 146.028 30.8488C145.053 30.8488 144.298 31.2155 143.768 31.9541C143.307 32.6043 143.076 33.4262 143.076 34.4183V40.9656H140.303V32.4171C140.305 31.1072 140.278 29.7974 140.222 28.4887H142.637L142.739 30.8762H142.816C143.11 30.0556 143.57 29.3937 144.202 28.8983C144.781 28.4654 145.484 28.231 146.207 28.2299C146.463 28.2299 146.694 28.2481 146.9 28.2806L146.902 30.9256ZM159.305 34.1361C159.312 34.5576 159.278 34.9787 159.203 35.3936H150.884C150.915 36.6263 151.318 37.5704 152.091 38.2206C152.792 38.8005 153.699 39.0918 154.812 39.0918C156.044 39.0918 157.168 38.8968 158.178 38.5028L158.613 40.426C157.432 40.9409 156.037 41.1971 154.428 41.1971C152.493 41.1971 150.974 40.6275 149.868 39.491C148.765 38.3532 148.212 36.824 148.212 34.9086C148.212 33.0282 148.726 31.4613 149.755 30.2117C150.832 28.8775 152.287 28.2104 154.119 28.2104C155.918 28.2104 157.279 28.8775 158.204 30.2117C158.937 31.2689 159.305 32.5796 159.305 34.1361ZM156.66 33.417C156.68 32.5939 156.498 31.8852 156.122 31.2858C155.642 30.5134 154.903 30.1284 153.913 30.1284C153.007 30.1284 152.268 30.5042 151.706 31.2585C151.244 31.8579 150.97 32.5783 150.885 33.4145L156.66 33.417Z" fill="white"/>
<path d="M59.2215 17.5414C58.4502 17.5414 57.7829 17.5037 57.2275 17.44V9.07348C58.0043 8.95352 58.7893 8.89439 59.5753 8.89663C62.7555 8.89663 64.2201 10.461 64.2201 13.011C64.2201 15.9524 62.4902 17.5414 59.2215 17.5414ZM59.6872 9.96943C59.2579 9.96943 58.8924 9.99544 58.5894 10.0579V16.4179C58.7533 16.4439 59.068 16.4556 59.5103 16.4556C61.594 16.4556 62.7802 15.2697 62.7802 13.0487C62.7802 11.0682 61.7072 9.96943 59.6872 9.96943ZM68.7843 17.6051C66.9919 17.6051 65.8304 16.2671 65.8304 14.4505C65.8304 12.5571 67.0166 11.2074 68.8857 11.2074C70.6521 11.2074 71.8396 12.4817 71.8396 14.3503C71.8396 16.2671 70.6157 17.6051 68.7843 17.6051ZM68.8363 12.2034C67.8517 12.2034 67.2208 13.1241 67.2208 14.4115C67.2208 15.6741 67.8647 16.5948 68.8233 16.5948C69.7819 16.5948 70.4258 15.6104 70.4258 14.3854C70.4258 13.1371 69.7949 12.2034 68.8363 12.2034ZM82.0605 11.3335L80.142 17.466H78.892L78.0973 14.8029C77.8997 14.1514 77.7352 13.4904 77.6043 12.8224H77.5783C77.4782 13.4908 77.2883 14.1605 77.0867 14.8029L76.2412 17.466H74.9782L73.1728 11.3335H74.5737L75.2683 14.2489C75.4322 14.9433 75.57 15.5987 75.6845 16.2176H75.7105C75.8107 15.7014 75.9746 15.0564 76.2152 14.2619L77.0867 11.3348H78.1975L79.0312 14.1995C79.2328 14.8939 79.3967 15.5753 79.5242 16.2189H79.5606C79.649 15.5883 79.7882 14.9186 79.9768 14.1995L80.7221 11.3348L82.0605 11.3335ZM89.1233 17.466H87.7602V13.9446C87.7602 12.8601 87.344 12.3166 86.5232 12.3166C85.7155 12.3166 85.1601 13.011 85.1601 13.8185V17.466H83.797V13.0864C83.797 12.5441 83.784 11.9629 83.7463 11.3322H84.9455L85.0092 12.2789H85.047C85.4138 11.6235 86.1577 11.2074 86.9915 11.2074C88.2792 11.2074 89.1246 12.1917 89.1246 13.7938L89.1233 17.466ZM92.8824 17.466H91.5179V8.51953H92.8824V17.466ZM97.8524 17.6051C96.0613 17.6051 94.8985 16.2671 94.8985 14.4505C94.8985 12.5571 96.0847 11.2074 97.9525 11.2074C99.7202 11.2074 100.906 12.4817 100.906 14.3503C100.908 16.2671 99.6825 17.6051 97.8524 17.6051ZM97.9031 12.2034C96.9185 12.2034 96.2876 13.1241 96.2876 14.4115C96.2876 15.6741 96.9328 16.5948 97.8888 16.5948C98.8487 16.5948 99.4912 15.6104 99.4912 14.3854C99.4925 13.1371 98.863 12.2034 97.9031 12.2034ZM106.281 17.466L106.182 16.7599H106.146C105.729 17.3282 105.122 17.6051 104.352 17.6051C103.253 17.6051 102.472 16.8353 102.472 15.8002C102.472 14.2866 103.785 13.5038 106.057 13.5038V13.3907C106.057 12.5831 105.629 12.1787 104.784 12.1787C104.179 12.1787 103.648 12.3309 103.181 12.6339L102.904 11.7379C103.471 11.3842 104.179 11.2074 105.01 11.2074C106.613 11.2074 107.422 12.0526 107.422 13.7444V16.0031C107.422 16.6221 107.449 17.1019 107.51 17.4673L106.281 17.466ZM106.094 14.4115C104.58 14.4115 103.82 14.7782 103.82 15.6481C103.82 16.2918 104.211 16.6065 104.755 16.6065C105.448 16.6065 106.094 16.0772 106.094 15.3581V14.4115ZM114.041 17.466L113.977 16.4816H113.939C113.548 17.2254 112.89 17.6051 111.97 17.6051C110.491 17.6051 109.396 16.3048 109.396 14.4752C109.396 12.5571 110.532 11.2061 112.082 11.2061C112.903 11.2061 113.484 11.483 113.812 12.0396H113.839V8.51953H115.204V15.8132C115.204 16.4062 115.218 16.9615 115.254 17.466H114.041ZM113.839 13.8575C113.839 12.9993 113.271 12.2672 112.403 12.2672C111.393 12.2672 110.775 13.1631 110.775 14.4245C110.775 15.6611 111.416 16.5076 112.376 16.5076C113.233 16.5076 113.839 15.7625 113.839 14.8796V13.8575ZM123.855 17.6051C122.064 17.6051 120.902 16.2671 120.902 14.4505C120.902 12.5571 122.088 11.2074 123.956 11.2074C125.724 11.2074 126.91 12.4817 126.91 14.3503C126.911 16.2671 125.687 17.6051 123.855 17.6051ZM123.905 12.2034C122.922 12.2034 122.291 13.1241 122.291 14.4115C122.291 15.6741 122.935 16.5948 123.892 16.5948C124.852 16.5948 125.495 15.6104 125.495 14.3854C125.497 13.1371 124.867 12.2034 123.905 12.2034ZM134.241 17.466H132.876V13.9446C132.876 12.8601 132.46 12.3166 131.639 12.3166C130.832 12.3166 130.278 13.011 130.278 13.8185V17.466H128.913V13.0864C128.913 12.5441 128.9 11.9629 128.862 11.3322H130.062L130.125 12.2789H130.163C130.529 11.6235 131.274 11.2061 132.106 11.2061C133.394 11.2061 134.241 12.1904 134.241 13.7925V17.466ZM143.412 12.3556H141.912V15.3334C141.912 16.0915 142.175 16.4699 142.706 16.4699C142.946 16.4699 143.148 16.4439 143.311 16.4062L143.348 17.4413C143.084 17.5427 142.73 17.5934 142.291 17.5934C141.216 17.5934 140.574 17.0005 140.574 15.4478V12.3556H139.679V11.3335H140.574V10.21L141.912 9.80558V11.3322H143.412V12.3556ZM150.628 17.466H149.267V13.9706C149.267 12.8731 148.852 12.3179 148.03 12.3179C147.323 12.3179 146.665 12.7977 146.665 13.7691V17.466H145.303V8.51953H146.665V12.2034H146.692C147.122 11.5351 147.743 11.2061 148.537 11.2061C149.835 11.2061 150.628 12.2151 150.628 13.8185V17.466ZM158.022 14.7274H153.931C153.957 15.8887 154.726 16.544 155.864 16.544C156.468 16.544 157.025 16.4426 157.517 16.2541L157.729 17.2007C157.149 17.453 156.466 17.5791 155.671 17.5791C153.753 17.5791 152.617 16.3672 152.617 14.4882C152.617 12.6079 153.78 11.1944 155.518 11.1944C157.085 11.1944 158.068 12.3556 158.068 14.1098C158.077 14.3168 158.061 14.5241 158.022 14.7274ZM156.772 13.7561C156.772 12.8094 156.294 12.141 155.423 12.141C154.64 12.141 154.021 12.8224 153.932 13.7561H156.772Z" fill="white"/>
<defs>
<linearGradient id="paint0_linear_7238_1249" x1="129.132" y1="52.1381" x2="129.132" y2="-135.399" gradientUnits="userSpaceOnUse">
<stop stop-color="#1A1A1A" stop-opacity="0.1"/>
<stop offset="0.123" stop-color="#212121" stop-opacity="0.151"/>
<stop offset="0.308" stop-color="#353535" stop-opacity="0.227"/>
<stop offset="0.532" stop-color="#575757" stop-opacity="0.318"/>
<stop offset="0.783" stop-color="#858585" stop-opacity="0.421"/>
<stop offset="1" stop-color="#B3B3B3" stop-opacity="0.51"/>
</linearGradient>
</defs>
</svg>
