<svg width="33" height="33" viewBox="0 0 33 33" fill="none" xmlns="http://www.w3.org/2000/svg">
<path fill-rule="evenodd" clip-rule="evenodd" d="M3.46734 24.3214C4.38595 24.3189 5.26619 23.9527 5.91553 23.3029C6.56486 22.6532 6.93045 21.7727 6.93231 20.8541V17.3891H3.46734C2.54913 17.3909 1.66899 17.7562 1.01928 18.405C0.369569 19.0539 0.00311279 19.9335 0 20.8517C0.00235713 22.7633 1.55335 24.3143 3.46498 24.3167L3.46734 24.3214ZM12.1463 17.3867C11.2277 17.3892 10.3474 17.7554 9.69809 18.4052C9.04875 19.055 8.68317 19.9354 8.6813 20.8541V29.5354C8.68602 31.447 10.237 32.9956 12.1463 33.0003C13.0645 32.9978 13.9444 32.632 14.5936 31.9827C15.2429 31.3335 15.6088 30.4536 15.6113 29.5354V20.8517C15.6088 19.9335 15.2429 19.0536 14.5936 18.4043C13.9444 17.7551 13.0645 17.3892 12.1463 17.3867Z" fill="#E01E5A"/>
<path fill-rule="evenodd" clip-rule="evenodd" d="M8.6813 3.46734C8.68366 5.37897 10.2347 6.92996 12.1463 6.93231H15.6113V3.46734C15.6094 2.54913 15.2441 1.66899 14.5953 1.01928C13.9465 0.369569 13.0668 0.00311279 12.1486 0C11.2304 0.00248837 10.3506 0.368347 9.70128 1.01762C9.05201 1.66689 8.68615 2.54677 8.68366 3.46498L8.6813 3.46734ZM15.6113 12.1463C15.6088 11.2281 15.2429 10.3482 14.5936 9.69892C13.9444 9.04965 13.0645 8.68379 12.1463 8.6813H3.46498C2.54677 8.68379 1.66689 9.04965 1.01762 9.69892C0.368347 10.3482 0.00248837 11.2281 0 12.1463C0.00471426 14.0603 1.5557 15.6089 3.46498 15.6113H12.1486C13.0668 15.6088 13.9467 15.2429 14.596 14.5936C15.2453 13.9444 15.6088 13.0645 15.6113 12.1463Z" fill="#36C5F0"/>
<path fill-rule="evenodd" clip-rule="evenodd" d="M20.8532 15.6136C21.7715 15.6111 22.6513 15.2453 23.3006 14.596C23.9499 13.9467 24.3157 13.0668 24.3182 12.1486V3.46498C24.3157 2.54718 23.9502 1.66765 23.3014 1.01845C22.6527 0.369243 21.7734 0.00310993 20.8556 0C19.9374 0.00248837 19.0575 0.368347 18.4082 1.01762C17.759 1.66689 17.3931 2.54677 17.3906 3.46498V12.1486C17.3953 14.0579 18.9416 15.6089 20.8532 15.6136ZM29.5322 8.6813C28.614 8.68379 27.7341 9.04965 27.0848 9.69892C26.4356 10.3482 26.0697 11.2281 26.0672 12.1463V15.6113H29.5322C30.4504 15.6094 31.3305 15.2441 31.9802 14.5953C32.63 13.9465 32.9964 13.0668 32.9995 12.1486C32.997 11.2304 32.6312 10.3506 31.9819 9.70128C31.3326 9.05201 30.4528 8.68615 29.5345 8.68366L29.5322 8.6813Z" fill="#2EB67D"/>
<path fill-rule="evenodd" clip-rule="evenodd" d="M17.3887 20.8532C17.3934 22.7649 18.942 24.3159 20.8537 24.3182H29.535C30.4528 24.3157 31.3323 23.9502 31.9815 23.3014C32.6307 22.6527 32.9968 21.7734 32.9999 20.8556C32.9974 19.9374 32.6316 19.0575 31.9823 18.4082C31.333 17.759 30.4532 17.3931 29.535 17.3906H20.8537C19.9354 17.3931 19.0556 17.759 18.4063 18.4082C17.757 19.0575 17.3912 19.935 17.3887 20.8532ZM24.3186 29.5322C24.3161 28.614 23.9503 27.7341 23.301 27.0848C22.6517 26.4356 21.7719 26.0697 20.8537 26.0672H17.3887V29.5322C17.3934 31.4462 18.942 32.9948 20.8537 32.9972C21.7719 32.9947 22.6517 32.6288 23.301 31.9796C23.9503 31.3303 24.3161 30.4504 24.3186 29.5322Z" fill="#ECB22E"/>
</svg>
