<svg width="11" height="11" viewBox="0 0 11 11" fill="none" xmlns="http://www.w3.org/2000/svg">
<path d="M0.478995 10.9678C0.416947 10.9685 0.355383 10.9569 0.297848 10.9337C0.240307 10.9105 0.187936 10.8762 0.14374 10.8327C0.0930653 10.7827 0.0540791 10.7222 0.0295539 10.6555C0.00503517 10.5887 -0.00441004 10.5174 0.00190178 10.4465L0.201765 7.9751C0.210334 7.86035 0.260802 7.75274 0.343604 7.67262L7.47422 0.554492C7.8715 0.18308 8.40011 -0.0159517 8.94419 0.00100057C9.48472 0.00518394 10.0033 0.214584 10.3948 0.586672C10.7702 0.971541 10.9862 1.48381 10.9994 2.02087C11.0125 2.55793 10.8219 3.08012 10.4657 3.48285L3.32866 10.6332C3.24878 10.7126 3.14419 10.7626 3.03209 10.7747L0.524126 11L0.478995 10.9678ZM1.12372 8.22611L0.988325 9.98956L2.75486 9.82866L9.78232 2.80064C9.91933 2.63875 10.0069 2.44102 10.0347 2.23091C10.0625 2.02081 10.0292 1.80716 9.93886 1.61536C9.8486 1.42356 9.70502 1.26166 9.52527 1.14891C9.34552 1.03615 9.13715 0.977269 8.92484 0.979264C8.78533 0.970421 8.64542 0.989806 8.51358 1.03625C8.38173 1.0827 8.26065 1.15526 8.15763 1.24957L1.12372 8.22611Z" fill="black" fill-opacity="0.5"/>
</svg>
