<svg width="41" height="51" viewBox="0 0 41 51" fill="none" xmlns="http://www.w3.org/2000/svg">
<path d="M16.1787 7.99571C16.118 7.91043 16.0572 7.82515 15.9795 7.71455C15.955 7.67525 15.9434 7.6693 15.9276 7.67141C15.8979 7.62774 15.8681 7.58408 15.8143 7.51017C15.5459 7.18931 15.3016 6.8987 15.0572 6.60808C15.0572 6.60808 15.0379 6.60821 15.0428 6.58634C14.7983 6.24703 14.5518 5.92725 14.297 5.61418C14.2475 5.55329 14.1669 5.48046 14.0988 5.47846C13.8365 5.47076 13.5722 5.43195 13.316 5.55458C11.811 6.2749 10.4229 7.16727 9.19108 8.29928C7.17686 10.1503 5.7228 12.3648 4.85032 14.9578C4.593 15.7225 4.36071 16.4953 4.25909 17.3001C4.25153 17.3283 4.24397 17.3565 4.22669 17.423C4.2127 17.5141 4.20845 17.5669 4.2042 17.6197C4.19323 17.6673 4.18227 17.715 4.16034 17.8071C4.14107 17.9658 4.13277 18.08 4.12447 18.1942C4.11829 18.2226 4.1121 18.2509 4.09635 18.322C4.06237 18.6061 4.03795 18.8476 4.01354 19.089C4.00898 19.8578 4.00443 20.6266 4.00159 21.4463C4.0181 21.5883 4.0329 21.6795 4.04769 21.7707C4.05274 21.861 4.05778 21.9513 4.06703 22.0853C4.0854 22.1796 4.09958 22.2304 4.11375 22.2811C4.12046 22.3718 4.12717 22.4625 4.13842 22.5931C4.15426 22.665 4.16555 22.6969 4.17685 22.7288C4.1812 22.7984 4.18554 22.868 4.19412 22.9776C4.2112 23.0495 4.22405 23.0815 4.2369 23.1135C4.25884 23.2678 4.28077 23.4222 4.30871 23.6205C4.3335 23.7142 4.35229 23.7641 4.37108 23.8139C4.50001 24.316 4.59561 24.8297 4.76596 25.3172C4.99992 25.9868 5.29051 26.6367 5.57182 27.3333C5.62351 27.4294 5.6602 27.4873 5.69689 27.5451C5.72455 27.6136 5.75222 27.6822 5.79124 27.779C5.80793 27.8232 5.81891 27.8321 5.83552 27.834C5.83552 27.834 5.83387 27.839 5.8379 27.86C5.87988 27.9363 5.91782 27.9916 5.95575 28.047C6.32186 28.6315 6.68797 29.2161 7.06948 29.8243C7.08488 29.8478 7.09688 29.8605 7.09688 29.8605L7.11438 29.8598C7.11438 29.8598 7.11602 29.8749 7.12824 29.8977C7.25658 30.063 7.3727 30.2054 7.48882 30.3479C7.54257 30.4227 7.59633 30.4975 7.67277 30.6021C8.05497 31.0209 8.40749 31.4168 8.77683 31.7963C8.97487 31.9997 9.20184 32.1751 9.41576 32.3631C9.4312 32.3828 9.44664 32.4026 9.48679 32.4469C9.56305 32.5046 9.61461 32.5377 9.66617 32.5709C9.68012 32.5878 9.69406 32.6048 9.73326 32.6453C10.0698 32.9023 10.381 33.1356 10.6923 33.369C10.796 33.4439 10.8998 33.5187 11.0341 33.616C11.1098 33.666 11.1549 33.6936 11.2 33.7211C11.3214 33.8748 11.218 34.0296 11.1928 34.2218C11.1821 34.2933 11.181 34.3269 11.1798 34.3604C11.1238 34.6202 11.0677 34.88 11.0024 35.1792C10.992 35.2519 10.9909 35.2854 10.9898 35.3188C10.9107 35.6845 10.8316 36.0501 10.7424 36.4553C10.7285 36.5288 10.7248 36.5627 10.7211 36.5967C10.712 36.6248 10.703 36.6529 10.6837 36.7163C10.6704 36.7853 10.6673 36.8189 10.6642 36.8524C10.6289 37.0047 10.5935 37.1569 10.5449 37.3541C10.5072 37.5068 10.4952 37.6198 10.4531 37.7202C10.432 37.7706 10.3563 37.7981 10.3053 37.836C10.1929 37.7647 10.0805 37.6934 9.93404 37.6016C9.82531 37.5434 9.7507 37.5056 9.67609 37.4678C9.57212 37.396 9.46814 37.3241 9.33288 37.2298C9.16866 37.1298 9.03572 37.0523 8.90279 36.9747C8.85308 36.9356 8.80336 36.8964 8.72461 36.8349C8.63714 36.7804 8.57872 36.7483 8.52029 36.7162C8.38574 36.615 8.2512 36.5138 8.08613 36.3881C7.93209 36.272 7.80855 36.1805 7.68502 36.089C7.66213 36.0654 7.63924 36.0419 7.59056 35.9965C7.52042 35.9471 7.47606 35.9194 7.43171 35.8917C7.39183 35.8541 7.35195 35.8165 7.29236 35.7602C7.26357 35.7291 7.25196 35.726 7.23783 35.7323C7.23783 35.7323 7.22485 35.7105 7.21627 35.6999C7.2077 35.6894 7.19116 35.692 7.19116 35.692C7.08177 35.5946 6.97239 35.4973 6.84391 35.3811C6.8248 35.3623 6.80117 35.3614 6.80117 35.3614C6.23989 34.7982 5.67861 34.2351 5.10385 33.6552C5.09035 33.6384 5.07478 33.6372 5.07478 33.6372C4.98127 33.5214 4.88775 33.4055 4.76967 33.2595C4.68768 33.1739 4.63026 33.1185 4.57284 33.0631C4.57284 33.0631 4.56416 33.0817 4.56488 33.0523C4.48181 32.9309 4.39801 32.8388 4.31422 32.7468C4.31422 32.7468 4.30729 32.761 4.30839 32.7348C4.26526 32.6589 4.22103 32.6094 4.1768 32.5598C4.12583 32.4832 4.07486 32.4066 4.00197 32.3C3.91867 32.197 3.85729 32.124 3.79592 32.051C3.79592 32.051 3.79248 32.0592 3.79134 32.0346C3.7124 31.9129 3.6346 31.816 3.5568 31.719C3.5568 31.719 3.54309 31.7155 3.54613 31.6957C3.47796 31.5764 3.40674 31.477 3.33552 31.3775C3.24603 31.2281 3.15654 31.0787 3.0468 30.8988C3.00355 30.8399 2.98057 30.8117 2.95758 30.7835C2.95758 30.7835 2.95884 30.7812 2.95413 30.7594C2.82416 30.5392 2.69888 30.3408 2.57361 30.1424C2.56059 30.1081 2.54758 30.0738 2.51847 30.0061C2.4436 29.8747 2.38483 29.7767 2.32606 29.6788C2.31633 29.6482 2.3066 29.6175 2.28621 29.5637C2.27557 29.5406 2.25258 29.5277 2.25258 29.5277C2.24534 29.5046 2.23809 29.4816 2.214 29.428C2.17499 29.3665 2.15282 29.3356 2.13065 29.3046C2.00928 29.0421 1.88791 28.7796 1.7525 28.4782C1.69967 28.3675 1.66089 28.2955 1.62211 28.2236C1.58808 28.1277 1.55405 28.0318 1.50453 27.8971C1.42807 27.7171 1.36709 27.5759 1.30611 27.4347C1.30611 27.4347 1.30767 27.4118 1.30161 27.3828C1.27347 27.3074 1.2514 27.2609 1.22933 27.2144C1.22868 27.2015 1.22804 27.1885 1.21954 27.1368C1.17167 27.006 1.13166 26.9141 1.09164 26.8222C1.02979 26.6231 0.967943 26.4241 0.897139 26.1861C0.872214 26.1168 0.856242 26.0863 0.84027 26.0559C0.789453 25.8553 0.738639 25.6547 0.675695 25.4114C0.639714 25.2988 0.615858 25.2288 0.592001 25.1588C0.564519 25.0198 0.537035 24.8808 0.503838 24.7056C0.486696 24.6442 0.47527 24.6191 0.463843 24.5939C0.459132 24.5424 0.454421 24.4908 0.443601 24.3993C0.423201 24.3284 0.40891 24.2974 0.394619 24.2663C0.392714 24.2366 0.390809 24.2068 0.383263 24.14C0.363706 24.0717 0.349787 24.0403 0.335871 24.0089C0.329434 23.9392 0.322999 23.8695 0.310877 23.7607C0.292497 23.6901 0.279805 23.6587 0.267111 23.6273C0.248514 23.4729 0.229916 23.3185 0.207459 23.1145C0.191499 23.0172 0.179398 22.9693 0.173932 22.9054C0.168866 22.8578 0.157163 22.8262 0.148689 22.7689C0.141174 22.6751 0.130436 22.6071 0.124966 22.5158C0.11298 22.4019 0.0957251 22.3113 0.0784684 22.2207C0.0724958 22.0885 0.0665232 21.9563 0.058277 21.7746C0.041888 21.6135 0.0277746 21.502 0.0136611 21.3905C0.0113173 20.9198 0.00897544 20.4492 0.00813504 19.9235C0.00642301 19.7784 0.00321151 19.6884 0 19.5983C0.00810189 19.4465 0.0162038 19.2948 0.0318538 19.0945C0.0410164 18.932 0.0426309 18.8181 0.0442474 18.7042C0.0586787 18.5737 0.07311 18.4433 0.095963 18.2673C0.104773 18.1519 0.105159 18.0821 0.116694 17.9866C0.133339 17.8678 0.138834 17.7747 0.155143 17.668C0.163253 17.6215 0.160548 17.5886 0.170793 17.5339C0.186731 17.462 0.189721 17.412 0.19271 17.362C0.199837 17.3324 0.206964 17.3027 0.219275 17.2466C0.22446 17.2202 0.228869 17.2037 0.228869 17.2037L0.213707 17.1958C0.233278 17.1 0.252849 17.0043 0.281328 16.8658C0.289311 16.7898 0.288386 16.7565 0.28746 16.7232C0.311261 16.6158 0.335063 16.5085 0.372995 16.3533C0.404404 16.1926 0.421684 16.0796 0.438964 15.9666C0.438964 15.9666 0.441755 15.9488 0.451019 15.9321C0.468837 15.8653 0.477391 15.8152 0.485946 15.765C0.521001 15.6326 0.556055 15.5002 0.601926 15.3295C0.616118 15.2572 0.619493 15.2233 0.634685 15.1699C0.65286 15.1058 0.659219 15.0612 0.665575 15.0166C0.685609 14.9618 0.705642 14.9071 0.739294 14.8123C0.798981 14.6208 0.842994 14.4687 0.891512 14.318C1.01749 13.9266 1.14544 13.536 1.27261 13.145C1.3023 13.0756 1.332 13.0062 1.37871 12.8991C1.60056 12.3827 1.80541 11.904 2.01025 11.4253C2.05061 11.3534 2.09097 11.2815 2.15055 11.1765C2.20098 11.0675 2.23218 10.9916 2.26338 10.9158C2.26338 10.9158 2.26163 10.9096 2.27964 10.9009C2.73104 10.1797 3.15646 9.46219 3.60127 8.75686C3.81454 8.41869 4.06449 8.10366 4.29782 7.77815C4.29782 7.77815 4.30052 7.77875 4.31886 7.76806C5.07439 6.85331 5.85489 5.99037 6.73967 5.22639C7.03537 4.97106 7.33091 4.71554 7.62652 4.46011C7.62652 4.46011 7.62263 4.45694 7.64581 4.45418C7.74584 4.39457 7.82338 4.33862 7.89944 4.28074C8.98618 3.45382 10.1454 2.74487 11.3724 2.14618C13.2915 1.2098 15.3193 0.643466 17.4283 0.3362C19.3714 0.0530957 21.3108 0.0815401 23.2438 0.387031C24.9301 0.65354 26.5618 1.12627 28.1287 1.81373C30.7361 2.95761 33.0189 4.55518 34.9379 6.66441C35.2022 6.95492 35.4667 7.24526 35.7311 7.53569C35.8016 7.63325 35.8721 7.73082 35.9666 7.85983C36.2247 8.19511 36.4588 8.49895 36.693 8.80279C36.693 8.80279 36.6948 8.80127 36.6978 8.82275C36.7597 8.92284 36.8186 9.00143 36.8775 9.08003C36.8911 9.10996 36.9047 9.13988 36.937 9.19906C37.0371 9.34384 37.1185 9.45936 37.1999 9.57488C37.1999 9.57488 37.2034 9.56764 37.2034 9.5908C37.2552 9.68983 37.3069 9.7657 37.3587 9.84158C37.3964 9.91466 37.4342 9.98774 37.4933 10.0967C37.8139 10.6907 38.1133 11.2488 38.4127 11.807C38.4502 11.9013 38.4877 11.9955 38.5396 12.1274C38.5923 12.2371 38.6307 12.3091 38.669 12.3812C38.6957 12.4585 38.7225 12.5358 38.7658 12.652C38.8306 12.8004 38.8788 12.9099 38.927 13.0193C38.9642 13.1344 39.0013 13.2495 39.0515 13.405C39.1029 13.5383 39.1412 13.6312 39.1796 13.724C39.1986 13.7955 39.2177 13.8669 39.2474 13.9814C39.319 14.2005 39.3799 14.3764 39.4409 14.5524C39.4781 14.7087 39.5154 14.8649 39.563 15.0626C39.5936 15.1542 39.6139 15.2043 39.6343 15.2545C39.69 15.517 39.7458 15.7794 39.8111 16.0876C39.8441 16.2237 39.8675 16.314 39.8909 16.4043C39.9192 16.6011 39.9474 16.7979 39.9812 17.0347C39.9984 17.1065 40.0101 17.1382 40.0217 17.17C40.0271 17.2603 40.0324 17.3506 40.0423 17.4901C40.0805 17.7358 40.1142 17.9324 40.148 18.129C40.1474 18.1579 40.1468 18.1869 40.1487 18.2639C40.1717 18.4851 40.1922 18.6582 40.2127 18.8313C40.2139 18.9207 40.2152 19.0101 40.2168 19.1549C40.2282 19.7874 40.2392 20.3645 40.2502 20.9416C40.2351 21.1567 40.2199 21.3717 40.1965 21.6376C40.1793 21.8441 40.1704 21.9999 40.1615 22.1557C40.1545 22.2037 40.1474 22.2517 40.131 22.3442C40.0988 22.5883 40.076 22.7879 40.0532 22.9875C40.0397 23.0756 40.0262 23.1638 40.0042 23.2923C39.9953 23.3666 39.9948 23.4004 39.9944 23.4343C39.9799 23.5018 39.9653 23.5692 39.9392 23.683C39.8835 23.9721 39.8394 24.2149 39.7953 24.4578C39.7831 24.5046 39.771 24.5515 39.7466 24.6418C39.6392 25.0553 39.5506 25.4272 39.4476 25.7951C38.7629 28.2398 37.6169 30.4524 36.0819 32.4687C35.8705 32.7463 35.6632 33.027 35.454 33.3063C35.454 33.3063 35.4559 33.3116 35.434 33.3181C34.9684 33.7893 34.5241 34.2534 34.0818 34.7193C34.0249 34.7792 33.9778 34.8484 33.9262 34.9132C33.9262 34.9132 33.941 34.9222 33.9129 34.9226C33.7304 35.0717 33.5761 35.2204 33.4218 35.3691C33.4218 35.3691 33.4325 35.3768 33.4074 35.377C32.2706 36.3016 31.1195 37.1679 29.8074 37.8492C29.7537 37.6615 29.7108 37.5115 29.6678 37.3615C29.6489 37.2492 29.63 37.137 29.6047 36.9765C29.5552 36.7541 29.5119 36.5799 29.4686 36.4057C29.4657 36.3566 29.4628 36.3075 29.4543 36.2188C29.4346 36.148 29.4205 36.1168 29.4064 36.0856C29.4025 36.0365 29.3987 35.9873 29.3887 35.8992C29.3691 35.8288 29.3558 35.7974 29.3424 35.766C29.342 35.7371 29.3415 35.7082 29.3363 35.6335C29.2704 35.328 29.2093 35.0685 29.1482 34.8089C29.1426 34.7549 29.1371 34.701 29.1241 34.6147C29.1149 34.5667 29.1068 34.5564 29.0921 34.5511C29.091 34.5224 29.0899 34.4937 29.0851 34.4195C29.0626 34.2704 29.056 34.1627 29.0225 34.0642C28.9623 33.8869 29.0053 33.766 29.1659 33.6648C29.344 33.5526 29.5149 33.427 29.678 33.2937C30.0687 32.9746 30.453 32.6475 30.8398 32.3237C30.8398 32.3237 30.8668 32.314 30.8871 32.3016C30.923 32.2801 30.9297 32.2668 30.9274 32.249C30.9696 32.2181 31.0118 32.1872 31.0828 32.1322C31.2077 32.0077 31.3038 31.9074 31.3998 31.8071C31.4212 31.8046 31.4379 31.7943 31.4742 31.7534C31.7703 31.4488 32.0566 31.1796 32.3096 30.8821C32.6165 30.5214 32.8952 30.1369 33.1862 29.7627C33.1862 29.7627 33.1817 29.7584 33.2022 29.751C33.5443 29.2357 33.8659 28.7277 34.1875 28.2198C34.1875 28.2198 34.2003 28.2125 34.207 28.2059C34.2138 28.1994 34.2096 28.1803 34.2096 28.1803C34.2382 28.1339 34.2669 28.0875 34.319 28.0027C34.3804 27.8808 34.4182 27.7973 34.4561 27.7138C34.4561 27.7138 34.4705 27.6996 34.4873 27.6746C34.5737 27.4989 34.6434 27.3481 34.7237 27.1904C34.7474 27.1693 34.7498 27.1534 34.7416 27.1359C34.7766 27.068 34.8117 27 34.8638 26.8985C34.8873 26.8425 34.8936 26.8199 34.9096 26.7938C34.9307 26.777 34.9296 26.7649 34.9158 26.754C34.9754 26.6216 35.0351 26.4892 35.1128 26.3179C35.2453 25.9483 35.3598 25.6175 35.4743 25.2867C35.4823 25.2657 35.4902 25.2447 35.5124 25.1895C35.5862 24.9428 35.6457 24.7302 35.7052 24.5175C35.7156 24.4901 35.7259 24.4627 35.7493 24.3959C35.785 24.2398 35.8076 24.123 35.8301 24.0063C35.84 23.9783 35.8499 23.9504 35.8715 23.8818C35.9068 23.7043 35.9303 23.5675 35.9539 23.4307C35.9643 23.4028 35.9747 23.3749 35.9966 23.3089C36.0101 23.2178 36.0122 23.1648 36.0142 23.1118C36.0264 23.0639 36.0386 23.0159 36.0614 22.9245C36.0791 22.7877 36.0861 22.6943 36.0931 22.601C36.1003 22.5723 36.1074 22.5436 36.1253 22.4743C36.1413 22.3403 36.1468 22.2469 36.1522 22.1536C36.1627 22.0854 36.1733 22.0172 36.1936 21.9033C36.2091 21.7434 36.2147 21.6291 36.2204 21.5149C36.2284 21.4664 36.2364 21.4178 36.2539 21.3234C36.2699 20.8859 36.2815 20.4943 36.2804 20.1028C36.2799 19.9361 36.2527 19.7695 36.2377 19.6029C36.2373 19.5129 36.2368 19.423 36.2355 19.2808C36.2145 19.0763 36.1945 18.9242 36.1745 18.772C36.1724 18.7024 36.1703 18.6329 36.1652 18.5176C36.1464 18.401 36.1305 18.3301 36.1147 18.2593C36.11 18.1694 36.1053 18.0795 36.0973 17.9455C36.0786 17.8507 36.0631 17.8 36.0475 17.7492C36.0451 17.6972 36.0427 17.6451 36.0363 17.5514C36.0175 17.4646 36.0028 17.4194 35.9881 17.3743C35.9878 17.3532 35.9876 17.3321 35.9791 17.2715C35.9401 17.1042 35.9094 16.9763 35.8786 16.8484C35.8396 16.6451 35.8006 16.4418 35.7559 16.2114C35.7501 16.1843 35.7321 16.1687 35.7321 16.1687C35.7288 16.1354 35.7255 16.1022 35.7157 16.0289C35.6928 15.9584 35.6765 15.9279 35.6602 15.8974C35.6547 15.8627 35.6491 15.8279 35.6362 15.7649C35.6274 15.7225 35.6195 15.7152 35.6053 15.7148C35.5728 15.5956 35.5403 15.4764 35.4964 15.3133C35.4203 15.0938 35.3556 14.9182 35.291 14.7426C35.2626 14.6451 35.2341 14.5475 35.1897 14.4134C35.142 14.3028 35.1102 14.2287 35.0784 14.1546C35.0784 14.1546 35.0751 14.127 35.0619 14.0949C35.0259 14.0229 35.003 13.9831 34.9801 13.9433C34.9801 13.9433 34.9858 13.9259 34.9788 13.8953C34.8547 13.6048 34.7483 13.3395 34.618 13.0865C34.4495 12.7593 34.2619 12.442 34.0826 12.1205C34.0443 12.0467 34.0061 11.973 33.9493 11.8624C33.5972 11.3462 33.2636 10.8669 32.9301 10.3875C32.931 10.3682 32.9247 10.3517 32.8913 10.3104C32.2516 9.48793 31.5614 8.75889 30.8008 8.09797C30.5631 7.8914 30.3049 7.70841 30.0561 7.51463C30.0561 7.51463 30.0497 7.5203 30.0446 7.499C29.9844 7.42755 29.9336 7.37164 29.8738 7.32814C28.9161 6.63208 27.9105 6.01338 26.8231 5.54356C26.6047 5.44919 26.3248 5.49087 26.073 5.48564C26.0262 5.48467 25.9698 5.55293 25.9315 5.60026C25.6034 6.00523 25.2762 6.41089 24.9532 6.81987C24.228 7.73797 23.5042 8.65715 22.7831 9.57844C22.677 9.71401 22.5653 9.77323 22.3798 9.76726C21.9342 9.75293 21.4874 9.77621 21.0138 9.77638C20.8552 9.77404 20.7238 9.77961 20.5692 9.77804C20.4982 9.77558 20.4504 9.78028 20.3737 9.77694C20.0011 9.77406 19.6574 9.77922 19.2847 9.77721C18.7881 9.77075 18.3204 9.76738 17.853 9.77434C17.6909 9.77675 17.5666 9.73054 17.4674 9.5988C17.3333 9.42086 17.1893 9.25029 17.0497 9.07652C16.7706 8.7293 16.4916 8.38206 16.2124 8.02465C16.2055 8.00037 16.1943 7.99412 16.1787 7.99571Z" fill="#007AFF"/>
<path d="M27.1153 34.3575C27.1629 34.6183 27.2105 34.8791 27.2641 35.183C27.285 35.2766 27.2998 35.327 27.3146 35.3774C27.3379 35.5119 27.3611 35.6465 27.3906 35.8204C27.4103 35.8912 27.4237 35.9227 27.4372 35.9541C27.4484 36.0321 27.4596 36.1101 27.4765 36.2137C27.4823 36.2392 27.4982 36.254 27.4982 36.254C27.5036 36.3083 27.509 36.3626 27.5204 36.4576C27.5392 36.53 27.5519 36.5616 27.5647 36.5933C27.5693 36.6428 27.574 36.6923 27.5849 36.7798C27.6038 36.8494 27.6164 36.881 27.629 36.9126C27.6394 36.9896 27.6498 37.0667 27.6656 37.1717C27.6711 37.1995 27.6894 37.216 27.6894 37.216C27.6924 37.2508 27.6954 37.2856 27.704 37.3633C27.726 37.4544 27.7426 37.5026 27.7592 37.5509C27.769 37.6282 27.7788 37.7056 27.7938 37.8105C27.799 37.8381 27.817 37.8542 27.817 37.8542C27.8191 37.887 27.8211 37.9199 27.8286 37.9957C27.8514 38.0892 27.8688 38.1398 27.8861 38.1903C27.8969 38.2684 27.9078 38.3465 27.9244 38.4498C27.9302 38.4749 27.9457 38.4896 27.9457 38.4896C27.9751 38.6509 28.0044 38.8123 28.0412 39.0193C28.0787 39.1783 28.1088 39.2915 28.139 39.4047C28.1434 39.4539 28.1478 39.5031 28.1576 39.5909C28.1757 39.6612 28.1886 39.6929 28.2015 39.7247C28.2382 39.9229 28.2748 40.1211 28.3184 40.3673C28.3608 40.5712 28.3964 40.7271 28.432 40.883C28.4758 41.1479 28.5196 41.4127 28.563 41.7101C28.5627 41.7427 28.5693 41.7555 28.5693 41.7555C28.5585 41.7677 28.5476 41.78 28.5078 41.8213C28.4259 41.908 28.3729 41.9656 28.32 42.0231C28.32 42.0231 28.3241 42.0264 28.3026 42.0319C28.1227 42.2031 27.9643 42.3687 27.8059 42.5343C27.7844 42.5357 27.7673 42.5452 27.7303 42.5834C27.6542 42.6655 27.6025 42.7269 27.5508 42.7883C27.5508 42.7883 27.5561 42.7931 27.5351 42.7972C27.4416 42.8825 27.3692 42.9636 27.2967 43.0448C27.2967 43.0448 27.3016 43.0485 27.2798 43.0538C26.9294 43.3953 26.6008 43.7315 26.2722 44.0678C26.2505 44.0699 26.2337 44.08 26.1982 44.12C26.1226 44.202 26.0705 44.2621 26.0184 44.3223C26.0184 44.3223 26.0237 44.3263 26.0017 44.3314C25.7921 44.5219 25.6021 44.705 25.4172 44.8932C25.0409 45.2763 24.6673 45.6622 24.2925 46.0469C24.2925 46.0469 24.2985 46.0505 24.2759 46.054C23.9017 46.4157 23.55 46.7739 23.1984 47.1321C23.178 47.1337 23.1622 47.1432 23.1268 47.1816C22.9647 47.3483 22.827 47.494 22.6893 47.6396C22.6893 47.6396 22.6978 47.6453 22.6749 47.647C22.5792 47.7307 22.5063 47.8127 22.4334 47.8947C22.4334 47.8947 22.4428 47.9012 22.4193 47.9028C22.3207 47.987 22.2457 48.0696 22.1706 48.1523C21.7317 48.58 21.2928 49.0077 20.8267 49.4631C20.7643 49.5338 20.7292 49.5769 20.6941 49.62C20.6765 49.621 20.663 49.629 20.6301 49.6646C20.4694 49.8351 20.3322 49.9849 20.195 50.1347C20.1692 50.1396 20.1434 50.1445 20.0874 50.132C19.9613 50.0166 19.8654 49.9185 19.7954 49.8206C20.0156 49.8355 20.083 49.7384 20.0842 49.5522C20.0863 49.2273 20.0405 48.9053 20.0747 48.5768C20.1147 48.1914 20.099 47.8004 20.1103 47.4119C20.1157 47.2268 20.1329 47.042 20.1349 46.857C20.1371 46.6607 20.1294 46.4642 20.1228 46.2678C20.1135 45.9877 20.0893 45.7074 20.0935 45.4275C20.0982 45.1107 20.1348 44.7945 20.1434 44.4776C20.1506 44.2121 20.1406 43.946 20.1326 43.6803C20.1195 43.2501 20.0915 42.8202 20.0897 42.39C20.0886 42.1374 20.1391 41.8848 20.143 41.6319C20.1517 41.0679 20.1387 40.5037 20.1484 39.9398C20.1541 39.6123 20.1888 39.2854 20.2057 38.9581C20.2111 38.8523 20.2058 38.7454 20.1972 38.6397C20.1837 38.4716 20.1481 38.3041 20.148 38.1363C20.145 34.2943 20.1457 30.4523 20.1455 26.6103C20.1454 26.5039 20.1702 26.3881 20.1372 26.2927C19.9716 25.8137 20.1731 25.3302 20.1038 24.8458C20.0626 24.5574 20.1759 24.2513 20.0873 23.9519C20.0702 23.894 20.0864 23.8252 20.092 23.7618C20.1086 23.5727 20.1445 23.3837 20.1432 23.1949C20.1257 20.7127 20.1878 18.2302 20.0866 15.7481C20.026 14.2622 20.1544 12.7724 20.02 11.2865C19.9942 11.0023 19.9848 10.9755 19.7039 10.9009C19.6323 10.882 19.5617 10.8567 19.489 10.8457C19.3564 10.8255 19.3121 10.7437 19.3442 10.6144C20.3107 10.6066 21.2479 10.6061 22.1914 10.6148C22.2172 10.6235 22.237 10.623 22.2673 10.6254C22.2778 10.6284 22.2998 10.6287 22.2998 10.6287C22.316 10.7287 22.3322 10.8287 22.3545 10.9663C22.3716 11.0353 22.3828 11.0665 22.394 11.0978C22.3993 11.1478 22.4046 11.1977 22.4156 11.2855C22.4335 11.3546 22.4457 11.3859 22.4579 11.4172C22.5046 11.6577 22.5512 11.8982 22.6041 12.1783C22.6227 12.2494 22.6351 12.2809 22.6474 12.3124C22.6528 12.3621 22.6581 12.4119 22.6696 12.4995C22.6882 12.5686 22.7007 12.5999 22.7132 12.6312C22.7405 12.7867 22.7677 12.9423 22.8013 13.1369C22.8195 13.2072 22.8314 13.2383 22.8432 13.2695C22.8454 13.2997 22.8476 13.3299 22.8555 13.3963C22.8739 13.4642 22.8865 13.4959 22.8991 13.5275C22.9001 13.5567 22.9012 13.5859 22.9068 13.6554C22.9279 13.7463 22.9445 13.7969 22.961 13.8476C23.0328 14.2359 23.1047 14.6242 23.1828 15.0528C23.2009 15.1243 23.2126 15.1557 23.2244 15.187C23.2263 15.217 23.2283 15.2469 23.2356 15.3134C23.255 15.3814 23.269 15.4128 23.2831 15.4442C23.3099 15.5993 23.3367 15.7545 23.3697 15.9487C23.3882 16.0194 23.4004 16.051 23.4127 16.0826C23.4168 16.1321 23.4209 16.1815 23.4305 16.2693C23.4489 16.3394 23.4616 16.3711 23.4743 16.4028C23.4756 16.432 23.4769 16.4613 23.4834 16.5306C23.5064 16.6208 23.5242 16.6709 23.5419 16.721C23.5529 16.8 23.5638 16.879 23.5824 16.9806C23.5901 17.0031 23.6011 17.0167 23.6011 17.0167C23.6079 17.0724 23.6146 17.1282 23.6282 17.2247C23.6471 17.2969 23.6592 17.3282 23.6712 17.3596C23.6764 17.4095 23.6815 17.4594 23.6928 17.5472C23.7114 17.6163 23.7238 17.6475 23.7363 17.6787C23.7387 17.7088 23.7411 17.7389 23.7491 17.8052C23.7672 17.8732 23.7796 17.905 23.7921 17.9368C23.7999 18.0066 23.8076 18.0764 23.822 18.1851C23.8409 18.255 23.8533 18.2861 23.8656 18.3172C23.8954 18.475 23.9253 18.6329 23.9642 18.8369C24.0001 18.9929 24.027 19.1027 24.0539 19.2125C24.0859 19.3982 24.1179 19.5838 24.1559 19.793C24.1619 19.8165 24.1762 19.831 24.1762 19.831C24.182 19.8859 24.1879 19.9408 24.2012 20.0429C24.2413 20.2239 24.2739 20.3577 24.3065 20.4916C24.333 20.6468 24.3595 20.802 24.3926 20.9963C24.4117 21.0669 24.4242 21.0983 24.4366 21.1298C24.4414 21.1797 24.4462 21.2295 24.4588 21.3238C24.4999 21.5015 24.5331 21.6347 24.5663 21.768C24.5712 21.818 24.5761 21.8679 24.5871 21.9558C24.6049 22.0253 24.6166 22.0567 24.6283 22.0882C24.6337 22.138 24.6392 22.1877 24.6508 22.2754C24.6694 22.3446 24.6817 22.3758 24.6941 22.4071C24.6993 22.4565 24.7045 22.5058 24.7172 22.5984C24.7545 22.756 24.7844 22.8702 24.8143 22.9845C24.8182 23.0334 24.8222 23.0823 24.8317 23.1729C24.8538 23.2648 24.8703 23.3149 24.8869 23.3651C24.8923 23.4152 24.8978 23.4653 24.9096 23.5531C24.9274 23.6222 24.9389 23.6535 24.9504 23.6848C24.9694 23.7979 24.9885 23.911 25.0129 24.0675C25.0353 24.1614 25.0525 24.2119 25.0696 24.2625C25.0775 24.3322 25.0855 24.402 25.1004 24.5106C25.1189 24.5808 25.1305 24.612 25.1421 24.6433C25.1493 24.6986 25.1566 24.754 25.1697 24.8393C25.1757 24.8831 25.1825 24.8908 25.1962 24.8925C25.2164 25.0077 25.2366 25.1229 25.2625 25.2837C25.2886 25.3991 25.3091 25.469 25.3296 25.5389C25.3558 25.6942 25.3821 25.8495 25.415 26.044C25.4334 26.1147 25.4454 26.1463 25.4573 26.178C25.4621 26.2274 25.4669 26.2768 25.4789 26.3707C25.5191 26.5491 25.5521 26.6829 25.5851 26.8167C25.5955 26.8939 25.6058 26.9711 25.6215 27.0764C25.6268 27.1046 25.6447 27.1221 25.6447 27.1221C25.656 27.2025 25.6672 27.2829 25.684 27.3939C25.6895 27.4246 25.7082 27.4436 25.7082 27.4436C25.7246 27.5401 25.7409 27.6365 25.7647 27.7788C25.796 27.9144 25.82 28.0041 25.844 28.0939C25.8491 28.1438 25.8543 28.1938 25.8661 28.2815C25.885 28.3505 25.8971 28.3817 25.9092 28.4129C25.9497 28.6319 25.9902 28.8509 26.036 29.1141C26.0582 29.2089 26.0751 29.2595 26.0921 29.3101C26.0995 29.3798 26.1069 29.4494 26.1209 29.5582C26.1397 29.6285 26.1519 29.6598 26.164 29.6911C26.2047 29.9097 26.2454 30.1284 26.2914 30.3917C26.3141 30.4869 26.3316 30.5376 26.349 30.5884C26.3822 30.7732 26.4153 30.9579 26.4547 31.1666C26.461 31.1905 26.4762 31.205 26.4762 31.205C26.5256 31.4731 26.575 31.7412 26.6307 32.0492C26.6492 32.1206 26.6615 32.152 26.6737 32.1834C26.6798 32.2332 26.6858 32.2831 26.6979 32.3707C26.7155 32.4398 26.7272 32.4712 26.7388 32.5025C26.7437 32.5522 26.7486 32.6019 26.7606 32.6952C26.7986 32.8523 26.8295 32.9658 26.8604 33.0793C26.8654 33.1285 26.8704 33.1776 26.8806 33.2653C26.899 33.3353 26.9121 33.3669 26.9253 33.3985C26.9674 33.6382 27.0095 33.8779 27.0574 34.1619C27.0806 34.2566 27.0979 34.3071 27.1153 34.3575Z" fill="#006CE2"/>
<path d="M19.3158 10.6221C19.3128 10.744 19.3571 10.8258 19.4897 10.8459C19.5624 10.857 19.633 10.8822 19.7045 10.9012C19.9854 10.9757 19.9949 11.0026 20.0206 11.2868C20.1551 12.7727 20.0267 14.2624 20.0873 15.7484C20.1885 18.2304 20.1264 20.7129 20.1439 23.1951C20.1452 23.384 20.1093 23.573 20.0926 23.7621C20.087 23.8255 20.0709 23.8943 20.088 23.9522C20.1766 24.2516 20.0632 24.5577 20.1045 24.8461C20.1738 25.3305 19.9722 25.814 20.1379 26.293C20.1709 26.3884 20.1461 26.5042 20.1461 26.6106C20.1463 30.4526 20.1457 34.2946 20.1486 38.1366C20.1488 38.3044 20.1843 38.4719 20.1979 38.64C20.2064 38.7457 20.2118 38.8526 20.2063 38.9583C20.1895 39.2857 20.1547 39.6126 20.1491 39.94C20.1394 40.5039 20.1524 41.0682 20.1437 41.6321C20.1398 41.8851 20.0893 42.1377 20.0904 42.3903C20.0922 42.8204 20.1201 43.2504 20.1332 43.6806C20.1413 43.9462 20.1513 44.2124 20.1441 44.4778C20.1355 44.7947 20.0988 45.111 20.0941 45.4278C20.0899 45.7077 20.1142 45.988 20.1235 46.2681C20.13 46.4644 20.1378 46.6609 20.1356 46.8573C20.1336 47.0423 20.1164 47.2271 20.111 47.4122C20.0997 47.8007 20.1153 48.1917 20.0753 48.577C20.0412 48.9055 20.087 49.2275 20.0849 49.5525C20.0836 49.7387 20.0163 49.8358 19.7816 49.808C19.7093 49.7738 19.6773 49.7527 19.6453 49.7316C19.644 49.714 19.6359 49.7005 19.6004 49.6682C19.5156 49.5914 19.4514 49.5373 19.3872 49.4833C19.2097 49.3024 19.0322 49.1214 18.8291 48.9126C18.7631 48.8519 18.7226 48.819 18.6822 48.7862C18.5694 48.6669 18.4566 48.5476 18.318 48.4001C18.2304 48.3185 18.1687 48.2652 18.1069 48.2119C18.1048 48.1913 18.0951 48.1754 18.0564 48.1397C17.8884 47.9776 17.7417 47.8399 17.5951 47.7023C17.5658 47.6662 17.5364 47.6302 17.4841 47.5688C17.4206 47.5111 17.3801 47.4787 17.3395 47.4464C17.3375 47.4256 17.3276 47.4096 17.2898 47.375C17.2289 47.3194 17.1884 47.2872 17.1478 47.2549C17.0767 47.1774 17.0056 47.0999 16.9095 46.9948C16.823 46.9148 16.7614 46.8622 16.6998 46.8097C16.6062 46.711 16.5126 46.6123 16.3924 46.4858C16.2642 46.3625 16.1625 46.2671 16.0608 46.1716C15.5221 45.6252 14.9834 45.0787 14.4185 44.503C14.2672 44.3571 14.1423 44.2403 14.0173 44.1235C13.9651 44.0676 13.9129 44.0116 13.8353 43.9304C13.7599 43.8666 13.71 43.8279 13.6601 43.7893C13.6601 43.7893 13.6542 43.7905 13.6492 43.7698C13.5969 43.707 13.5496 43.6648 13.5022 43.6227C13.4988 43.6002 13.4876 43.5827 13.4465 43.5462C13.3653 43.4701 13.3062 43.418 13.2471 43.3659C13.1543 43.2651 13.0615 43.1643 12.9422 43.0366C12.856 42.9578 12.7962 42.9058 12.7363 42.8538C12.7333 42.8316 12.7224 42.8144 12.6816 42.7783C12.6 42.7024 12.5404 42.6503 12.4809 42.5982C12.4778 42.576 12.4669 42.5588 12.4261 42.5226C12.3443 42.4473 12.2845 42.3957 12.2247 42.3442C12.1306 42.2438 12.0365 42.1434 11.914 42.0132C11.7031 41.8446 11.6568 41.6641 11.7139 41.4467C11.7296 41.3872 11.7236 41.3219 11.7276 41.2593C11.7443 41.1915 11.7609 41.1237 11.7879 41.0137C11.8042 40.9182 11.8103 40.865 11.8163 40.8118C11.8245 40.7837 11.8326 40.7557 11.8521 40.6863C11.9061 40.4024 11.9486 40.1598 11.9912 39.9173C12.0048 39.8698 12.0183 39.8224 12.0416 39.737C12.0534 39.6651 12.0555 39.6313 12.0575 39.5975C12.0707 39.5501 12.084 39.5027 12.1089 39.4121C12.161 39.147 12.2013 38.9252 12.2416 38.7035C12.2559 38.6558 12.2703 38.608 12.2935 38.5219C12.3021 38.4503 12.3018 38.417 12.3015 38.3837C12.3172 38.3362 12.3328 38.2887 12.3594 38.1968C12.3973 37.995 12.4242 37.8374 12.4511 37.6799C12.4598 37.652 12.4685 37.624 12.4878 37.5582C12.5034 37.4674 12.5082 37.4143 12.513 37.3613C12.5242 37.314 12.5354 37.2667 12.5567 37.182C12.5704 37.1103 12.5741 37.076 12.5778 37.0417C12.5864 37.0135 12.595 36.9852 12.6147 36.915C12.6759 36.6099 12.726 36.3468 12.7761 36.0837C12.784 36.0556 12.7919 36.0275 12.8093 35.9644C12.8219 35.8955 12.8249 35.8615 12.828 35.8276C12.8405 35.7804 12.853 35.7332 12.8772 35.6424C12.9338 35.3558 12.9787 35.1126 13.0236 34.8694C13.0323 34.8411 13.041 34.8127 13.06 34.7462C13.0766 34.6553 13.0829 34.6026 13.0891 34.5499C13.0977 34.5216 13.1062 34.4933 13.1256 34.4225C13.1858 34.0959 13.2352 33.8119 13.2845 33.5279C13.2925 33.4996 13.3006 33.4713 13.3207 33.4019C13.4008 33.0117 13.4688 32.6627 13.5369 32.3138C13.5456 32.2856 13.5543 32.2574 13.5746 32.1873C13.6742 31.6903 13.7622 31.2352 13.8501 30.7802C13.8625 30.733 13.8749 30.6858 13.8992 30.5948C13.9329 30.4591 13.9586 30.3681 13.976 30.2754C14.0805 29.7198 14.1831 29.1637 14.2863 28.6078C14.3004 28.5602 14.3145 28.5125 14.34 28.42C14.4076 28.0693 14.4636 27.7634 14.5196 27.4575C14.5196 27.4575 14.5238 27.4552 14.5302 27.4495C14.5367 27.4438 14.5417 27.4277 14.5417 27.4277L14.528 27.418C14.5471 27.3437 14.5662 27.2694 14.5946 27.1529C14.6062 27.0771 14.6085 27.0436 14.6107 27.0102C14.6242 26.9628 14.6377 26.9154 14.6628 26.8238C14.7145 26.5585 14.7546 26.3374 14.7947 26.1163C14.8118 26.0489 14.829 25.9815 14.8564 25.8746C14.8705 25.8008 14.8744 25.7666 14.8783 25.7324C14.8893 25.6852 14.9004 25.6381 14.9239 25.5476C15.0017 25.1544 15.067 24.8045 15.1324 24.4547C15.1437 24.4074 15.155 24.3601 15.1783 24.2691C15.2353 23.9823 15.2804 23.7392 15.3255 23.4962C15.3363 23.4489 15.3471 23.4016 15.368 23.3169C15.382 23.2451 15.3858 23.2109 15.3895 23.1766C15.3978 23.1483 15.406 23.1201 15.4259 23.0503C15.4822 22.7665 15.5269 22.5243 15.5715 22.2821C15.5842 22.2346 15.5969 22.1872 15.6193 22.1018C15.6313 22.0301 15.6336 21.9963 15.6358 21.9624C15.6492 21.9153 15.6626 21.8681 15.6877 21.7769C15.7444 21.49 15.7892 21.2472 15.834 21.0044C15.8449 20.9568 15.8558 20.9092 15.8784 20.8175C15.9516 20.4457 16.0131 20.1182 16.0745 19.7906C16.0887 19.743 16.1028 19.6955 16.1258 19.6012C16.2063 19.1858 16.2781 18.8173 16.3499 18.4487C16.3577 18.4203 16.3655 18.3919 16.3824 18.3282C16.3925 18.2595 16.3935 18.2262 16.3946 18.1928C16.4091 18.1456 16.4237 18.0984 16.4491 18.0069C16.4887 17.8049 16.5173 17.6473 16.5459 17.4896C16.5538 17.4617 16.5616 17.4338 16.5786 17.3706C16.5883 17.3018 16.5889 17.2681 16.5894 17.2344C16.6031 17.1869 16.6168 17.1394 16.6409 17.0509C16.6578 16.9569 16.6644 16.9041 16.6709 16.8512C16.6793 16.8232 16.6878 16.7952 16.7081 16.7257C16.8172 16.2219 16.9164 15.7601 17.0107 15.2974C17.0481 15.1136 17.0747 14.9276 17.1063 14.7426C17.1188 14.6951 17.1312 14.6476 17.1544 14.5595C17.1708 14.4658 17.1765 14.4125 17.1821 14.3593C17.1905 14.3312 17.1988 14.3031 17.219 14.2337C17.2782 13.9286 17.3255 13.6648 17.3728 13.401C17.3806 13.3726 17.3885 13.3441 17.408 13.2743C17.4849 12.8842 17.5501 12.5355 17.6152 12.1869C17.6282 12.1393 17.6412 12.0917 17.6667 12.0006C17.7532 11.6511 17.8272 11.3452 17.9208 11.0272C18.1157 10.8506 18.3171 10.763 18.5638 10.7801C18.7214 10.791 18.8803 10.7799 19.0386 10.7821C19.1485 10.7836 19.1879 10.7239 19.2088 10.6164C19.2583 10.613 19.287 10.6176 19.3158 10.6221Z" fill="#007AFF"/>
</svg>
