<svg width="180" height="38" viewBox="0 0 180 38" fill="none" xmlns="http://www.w3.org/2000/svg">
<path d="M35.16 30V8.91H39.24V30H35.16ZM52.8982 30V21.69C52.8982 20.83 52.6282 20.13 52.0882 19.59C51.5482 19.05 50.8482 18.78 49.9882 18.78C49.4282 18.78 48.9282 18.9 48.4882 19.14C48.0482 19.38 47.6982 19.72 47.4382 20.16C47.1982 20.6 47.0782 21.11 47.0782 21.69L45.5482 20.91C45.5482 19.77 45.7882 18.78 46.2682 17.94C46.7682 17.08 47.4482 16.41 48.3082 15.93C49.1882 15.45 50.1782 15.21 51.2782 15.21C52.3382 15.21 53.2882 15.48 54.1282 16.02C54.9682 16.54 55.6282 17.23 56.1082 18.09C56.5882 18.93 56.8282 19.84 56.8282 20.82V30H52.8982ZM43.1482 30V15.51H47.0782V30H43.1482ZM64.9739 30.33C64.1539 30.33 63.3439 30.22 62.5439 30C61.7639 29.78 61.0439 29.48 60.3839 29.1C59.7239 28.7 59.1539 28.22 58.6739 27.66L61.0139 25.29C61.5139 25.85 62.0939 26.27 62.7539 26.55C63.4139 26.83 64.1439 26.97 64.9439 26.97C65.5839 26.97 66.0639 26.88 66.3839 26.7C66.7239 26.52 66.8939 26.25 66.8939 25.89C66.8939 25.49 66.7139 25.18 66.3539 24.96C66.0139 24.74 65.5639 24.56 65.0039 24.42C64.4439 24.26 63.8539 24.09 63.2339 23.91C62.6339 23.71 62.0539 23.46 61.4939 23.16C60.9339 22.84 60.4739 22.41 60.1139 21.87C59.7739 21.31 59.6039 20.59 59.6039 19.71C59.6039 18.79 59.8239 17.99 60.2639 17.31C60.7239 16.63 61.3739 16.1 62.2139 15.72C63.0539 15.34 64.0439 15.15 65.1839 15.15C66.3839 15.15 67.4639 15.36 68.4239 15.78C69.4039 16.2 70.2139 16.83 70.8539 17.67L68.4839 20.04C68.0439 19.5 67.5439 19.11 66.9839 18.87C66.4439 18.63 65.8539 18.51 65.2139 18.51C64.6339 18.51 64.1839 18.6 63.8639 18.78C63.5639 18.96 63.4139 19.21 63.4139 19.53C63.4139 19.89 63.5839 20.17 63.9239 20.37C64.2839 20.57 64.7439 20.75 65.3039 20.91C65.8639 21.05 66.4439 21.22 67.0439 21.42C67.6639 21.6 68.2439 21.86 68.7839 22.2C69.3439 22.54 69.7939 22.99 70.1339 23.55C70.4939 24.11 70.6739 24.83 70.6739 25.71C70.6739 27.13 70.1639 28.26 69.1439 29.1C68.1239 29.92 66.7339 30.33 64.9739 30.33ZM73.324 30V15.51H77.284V30H73.324ZM75.304 13.17C74.664 13.17 74.134 12.96 73.714 12.54C73.294 12.1 73.084 11.56 73.084 10.92C73.084 10.3 73.294 9.77 73.714 9.33C74.134 8.89 74.664 8.67 75.304 8.67C75.964 8.67 76.494 8.89 76.894 9.33C77.314 9.77 77.524 10.3 77.524 10.92C77.524 11.56 77.314 12.1 76.894 12.54C76.494 12.96 75.964 13.17 75.304 13.17ZM86.8854 30.3C85.5454 30.3 84.3454 29.97 83.2854 29.31C82.2254 28.65 81.3854 27.75 80.7654 26.61C80.1654 25.47 79.8654 24.19 79.8654 22.77C79.8654 21.33 80.1654 20.04 80.7654 18.9C81.3854 17.76 82.2154 16.86 83.2554 16.2C84.3154 15.54 85.5254 15.21 86.8854 15.21C87.9254 15.21 88.8554 15.42 89.6754 15.84C90.5154 16.26 91.1854 16.85 91.6854 17.61C92.2054 18.35 92.4854 19.19 92.5254 20.13V25.29C92.4854 26.23 92.2154 27.08 91.7154 27.84C91.2154 28.6 90.5454 29.2 89.7054 29.64C88.8654 30.08 87.9254 30.3 86.8854 30.3ZM87.5454 26.67C88.2854 26.67 88.9254 26.51 89.4654 26.19C90.0254 25.85 90.4554 25.39 90.7554 24.81C91.0754 24.21 91.2354 23.52 91.2354 22.74C91.2354 21.98 91.0754 21.31 90.7554 20.73C90.4554 20.13 90.0254 19.67 89.4654 19.35C88.9254 19.01 88.2954 18.84 87.5754 18.84C86.8354 18.84 86.1854 19.01 85.6254 19.35C85.0854 19.69 84.6554 20.15 84.3354 20.73C84.0354 21.31 83.8854 21.98 83.8854 22.74C83.8854 23.52 84.0354 24.21 84.3354 24.81C84.6554 25.39 85.0954 25.85 85.6554 26.19C86.2154 26.51 86.8454 26.67 87.5454 26.67ZM94.9254 30H91.0254V26.1L91.6554 22.56L90.9954 19.08V8.31H94.9254V30ZM105.332 30.3C103.812 30.3 102.462 29.98 101.282 29.34C100.102 28.68 99.1621 27.78 98.4621 26.64C97.7821 25.5 97.4421 24.2 97.4421 22.74C97.4421 21.3 97.7721 20.02 98.4321 18.9C99.1121 17.76 100.032 16.86 101.192 16.2C102.352 15.52 103.642 15.18 105.062 15.18C106.462 15.18 107.692 15.5 108.752 16.14C109.832 16.76 110.672 17.62 111.272 18.72C111.892 19.8 112.202 21.03 112.202 22.41C112.202 22.67 112.182 22.94 112.142 23.22C112.122 23.48 112.072 23.78 111.992 24.12L99.8121 24.15V21.21L110.162 21.18L108.572 22.41C108.532 21.55 108.372 20.83 108.092 20.25C107.832 19.67 107.442 19.23 106.922 18.93C106.422 18.61 105.802 18.45 105.062 18.45C104.282 18.45 103.602 18.63 103.022 18.99C102.442 19.33 101.992 19.82 101.672 20.46C101.372 21.08 101.222 21.82 101.222 22.68C101.222 23.56 101.382 24.33 101.702 24.99C102.042 25.63 102.522 26.13 103.142 26.49C103.762 26.83 104.482 27 105.302 27C106.042 27 106.712 26.88 107.312 26.64C107.912 26.38 108.432 26 108.872 25.5L111.182 27.81C110.482 28.63 109.622 29.25 108.602 29.67C107.602 30.09 106.512 30.3 105.332 30.3ZM114.633 30V15.51H118.563V30H114.633ZM118.563 21.99L117.033 20.97C117.213 19.19 117.733 17.79 118.593 16.77C119.453 15.73 120.693 15.21 122.313 15.21C123.013 15.21 123.643 15.33 124.203 15.57C124.763 15.79 125.273 16.16 125.733 16.68L123.273 19.5C123.053 19.26 122.783 19.08 122.463 18.96C122.163 18.84 121.813 18.78 121.413 18.78C120.573 18.78 119.883 19.05 119.343 19.59C118.823 20.11 118.563 20.91 118.563 21.99ZM125.84 36.24C125.02 36.24 124.31 36.1 123.71 35.82C123.11 35.54 122.58 35.14 122.12 34.62L123.5 33.24C123.8 33.6 124.14 33.86 124.52 34.02C124.88 34.18 125.29 34.26 125.75 34.26C126.43 34.26 127.01 34.06 127.49 33.66C127.97 33.26 128.21 32.63 128.21 31.77V15.9H130.31V31.74C130.31 32.72 130.1 33.54 129.68 34.2C129.28 34.88 128.74 35.39 128.06 35.73C127.38 36.07 126.64 36.24 125.84 36.24ZM129.26 12.84C128.86 12.84 128.52 12.7 128.24 12.42C127.96 12.12 127.82 11.77 127.82 11.37C127.82 10.95 127.96 10.6 128.24 10.32C128.52 10.04 128.86 9.9 129.26 9.9C129.7 9.9 130.05 10.04 130.31 10.32C130.59 10.6 130.73 10.95 130.73 11.37C130.73 11.77 130.59 12.12 130.31 12.42C130.05 12.7 129.7 12.84 129.26 12.84ZM140.954 30.3C139.594 30.3 138.354 29.97 137.234 29.31C136.134 28.65 135.254 27.76 134.594 26.64C133.954 25.52 133.634 24.27 133.634 22.89C133.634 21.53 133.954 20.3 134.594 19.2C135.254 18.1 136.134 17.23 137.234 16.59C138.354 15.93 139.594 15.6 140.954 15.6C142.334 15.6 143.574 15.92 144.674 16.56C145.774 17.2 146.644 18.08 147.284 19.2C147.944 20.3 148.274 21.53 148.274 22.89C148.274 24.29 147.944 25.55 147.284 26.67C146.644 27.77 145.774 28.65 144.674 29.31C143.574 29.97 142.334 30.3 140.954 30.3ZM140.954 28.26C141.954 28.26 142.834 28.03 143.594 27.57C144.374 27.11 144.984 26.47 145.424 25.65C145.884 24.83 146.114 23.91 146.114 22.89C146.114 21.87 145.884 20.97 145.424 20.19C144.984 19.39 144.374 18.76 143.594 18.3C142.834 17.84 141.954 17.61 140.954 17.61C139.974 17.61 139.094 17.84 138.314 18.3C137.534 18.76 136.924 19.39 136.484 20.19C136.044 20.97 135.824 21.87 135.824 22.89C135.824 23.93 136.044 24.86 136.484 25.68C136.924 26.48 137.534 27.11 138.314 27.57C139.094 28.03 139.974 28.26 140.954 28.26ZM158.904 30.3C157.824 30.3 156.854 30.08 155.994 29.64C155.134 29.2 154.424 28.6 153.864 27.84C153.324 27.06 152.994 26.16 152.874 25.14V20.73C152.994 19.69 153.334 18.79 153.894 18.03C154.454 17.25 155.164 16.65 156.024 16.23C156.904 15.81 157.864 15.6 158.904 15.6C160.204 15.6 161.374 15.93 162.414 16.59C163.454 17.23 164.274 18.11 164.874 19.23C165.494 20.33 165.804 21.58 165.804 22.98C165.804 24.36 165.504 25.6 164.904 26.7C164.304 27.8 163.474 28.68 162.414 29.34C161.374 29.98 160.204 30.3 158.904 30.3ZM151.614 30V8.76H153.714V19.35L153.294 22.74L153.714 26.22V30H151.614ZM158.544 28.29C159.544 28.29 160.424 28.07 161.184 27.63C161.944 27.17 162.534 26.54 162.954 25.74C163.394 24.92 163.614 23.99 163.614 22.95C163.614 21.89 163.394 20.96 162.954 20.16C162.534 19.36 161.944 18.73 161.184 18.27C160.424 17.81 159.554 17.58 158.574 17.58C157.594 17.58 156.724 17.81 155.964 18.27C155.224 18.73 154.644 19.36 154.224 20.16C153.804 20.96 153.594 21.89 153.594 22.95C153.594 23.99 153.804 24.92 154.224 25.74C154.644 26.54 155.224 27.17 155.964 27.63C156.704 28.07 157.564 28.29 158.544 28.29ZM173.483 30.3C172.723 30.3 171.993 30.2 171.293 30C170.593 29.78 169.953 29.48 169.373 29.1C168.813 28.72 168.323 28.27 167.903 27.75L169.253 26.37C169.813 27.05 170.443 27.56 171.143 27.9C171.863 28.22 172.663 28.38 173.543 28.38C174.483 28.38 175.213 28.2 175.733 27.84C176.273 27.48 176.543 26.98 176.543 26.34C176.543 25.74 176.353 25.27 175.973 24.93C175.593 24.59 175.103 24.32 174.503 24.12C173.923 23.92 173.303 23.73 172.643 23.55C171.983 23.35 171.353 23.11 170.753 22.83C170.153 22.53 169.663 22.12 169.283 21.6C168.923 21.08 168.743 20.4 168.743 19.56C168.743 18.76 168.933 18.07 169.313 17.49C169.713 16.89 170.273 16.43 170.993 16.11C171.733 15.77 172.603 15.6 173.603 15.6C174.663 15.6 175.623 15.79 176.483 16.17C177.343 16.55 178.033 17.11 178.553 17.85L177.203 19.2C176.783 18.66 176.253 18.25 175.613 17.97C174.993 17.67 174.293 17.52 173.513 17.52C172.613 17.52 171.923 17.7 171.443 18.06C170.983 18.4 170.753 18.85 170.753 19.41C170.753 19.95 170.943 20.38 171.323 20.7C171.703 21 172.183 21.25 172.763 21.45C173.363 21.63 173.993 21.82 174.653 22.02C175.313 22.2 175.943 22.45 176.543 22.77C177.143 23.07 177.623 23.49 177.983 24.03C178.363 24.55 178.553 25.26 178.553 26.16C178.553 27.42 178.093 28.43 177.173 29.19C176.273 29.93 175.043 30.3 173.483 30.3Z" fill="black"/>
<path d="M10.0308 8.87061C9.99315 8.81773 9.95549 8.76486 9.90729 8.69629C9.89209 8.67192 9.88489 8.66823 9.87512 8.66954C9.85667 8.64247 9.83821 8.61539 9.80487 8.56957C9.63848 8.37064 9.48697 8.19046 9.33546 8.01028C9.33546 8.01028 9.3235 8.01036 9.32651 7.99679C9.17491 7.78642 9.02209 7.58816 8.86415 7.39406C8.83343 7.35631 8.7835 7.31115 8.74124 7.30991C8.57863 7.30514 8.41474 7.28108 8.25589 7.35711C7.3228 7.80371 6.4622 8.35697 5.69847 9.05882C4.44965 10.2064 3.54813 11.5795 3.0072 13.1871C2.84766 13.6612 2.70364 14.1403 2.64063 14.6393C2.63595 14.6568 2.63126 14.6743 2.62055 14.7155C2.61188 14.772 2.60924 14.8047 2.6066 14.8375C2.5998 14.867 2.59301 14.8965 2.57941 14.9536C2.56746 15.052 2.56232 15.1229 2.55717 15.1937C2.55334 15.2113 2.5495 15.2288 2.53974 15.2729C2.51867 15.4491 2.50353 15.5988 2.48839 15.7485C2.48557 16.2251 2.48274 16.7018 2.48098 17.21C2.49122 17.298 2.50039 17.3546 2.50957 17.4111C2.5127 17.4671 2.51583 17.5231 2.52156 17.6061C2.53295 17.6646 2.54174 17.6961 2.55052 17.7276C2.55468 17.7838 2.55884 17.84 2.56582 17.921C2.57564 17.9656 2.58264 17.9853 2.58964 18.0051C2.59234 18.0483 2.59504 18.0914 2.60036 18.1594C2.61094 18.204 2.61891 18.2238 2.62688 18.2436C2.64048 18.3393 2.65408 18.435 2.6714 18.558C2.68677 18.6161 2.69842 18.647 2.71007 18.6779C2.79 18.9892 2.84928 19.3076 2.9549 19.6099C3.09995 20.0251 3.28011 20.428 3.45453 20.8599C3.48657 20.9195 3.50932 20.9554 3.53207 20.9912C3.54922 21.0337 3.56637 21.0762 3.59057 21.1363C3.60092 21.1636 3.60772 21.1692 3.61802 21.1703C3.61802 21.1703 3.617 21.1734 3.6195 21.1864C3.64552 21.2337 3.66904 21.2681 3.69257 21.3024C3.91955 21.6648 4.14654 22.0273 4.38307 22.4043C4.39262 22.4189 4.40006 22.4268 4.40006 22.4268L4.41092 22.4263C4.41092 22.4263 4.41193 22.4357 4.41951 22.4498C4.49908 22.5523 4.57107 22.6406 4.64307 22.7289C4.67639 22.7753 4.70972 22.8217 4.75711 22.8865C4.99408 23.1462 5.21264 23.3917 5.44163 23.6269C5.56441 23.7531 5.70514 23.8618 5.83777 23.9784C5.84734 23.9906 5.85691 24.0028 5.88181 24.0303C5.92909 24.0661 5.96106 24.0867 5.99302 24.1072C6.00167 24.1177 6.01032 24.1282 6.03462 24.1533C6.24325 24.3127 6.43624 24.4574 6.62922 24.6021C6.69354 24.6485 6.75786 24.6949 6.84117 24.7552C6.8881 24.7862 6.91606 24.8033 6.94402 24.8204C7.01924 24.9156 6.95515 25.0116 6.93952 25.1308C6.93291 25.1751 6.93219 25.1959 6.93147 25.2167C6.89673 25.3778 6.86198 25.5389 6.82147 25.7243C6.81503 25.7695 6.81434 25.7902 6.81365 25.8109C6.76463 26.0376 6.71561 26.2643 6.66027 26.5155C6.65165 26.5611 6.64936 26.5822 6.64707 26.6032C6.64146 26.6206 6.63584 26.638 6.62392 26.6774C6.61567 26.7201 6.61374 26.741 6.6118 26.7618C6.58989 26.8562 6.56798 26.9506 6.53782 27.0728C6.51445 27.1675 6.50699 27.2375 6.48093 27.2998C6.46786 27.331 6.4209 27.3481 6.38926 27.3716C6.31959 27.3274 6.24992 27.2832 6.1591 27.2263C6.09169 27.1902 6.04543 27.1667 5.99917 27.1433C5.93471 27.0988 5.87024 27.0542 5.78638 26.9957C5.68456 26.9338 5.60215 26.8857 5.51973 26.8376C5.48891 26.8133 5.45808 26.789 5.40925 26.7509C5.35503 26.7171 5.3188 26.6972 5.28258 26.6773C5.19916 26.6146 5.11574 26.5518 5.0134 26.4739C4.91789 26.4019 4.8413 26.3452 4.76471 26.2885C4.75052 26.2738 4.73633 26.2592 4.70615 26.2311C4.66266 26.2005 4.63516 26.1833 4.60766 26.1661C4.58293 26.1428 4.5582 26.1195 4.52126 26.0846C4.50341 26.0653 4.49622 26.0634 4.48746 26.0673C4.48746 26.0673 4.4794 26.0538 4.47409 26.0472C4.46877 26.0407 4.45851 26.0423 4.45851 26.0423C4.3907 25.9819 4.32288 25.9216 4.24322 25.8495C4.23138 25.8379 4.21672 25.8373 4.21672 25.8373C3.86873 25.4882 3.52074 25.139 3.16438 24.7795C3.15602 24.7691 3.14637 24.7683 3.14637 24.7683C3.08839 24.6965 3.03041 24.6247 2.95719 24.5341C2.90636 24.4811 2.87076 24.4467 2.83516 24.4124C2.83516 24.4124 2.82978 24.4239 2.83023 24.4057C2.77872 24.3304 2.72677 24.2733 2.67482 24.2163C2.67482 24.2163 2.67052 24.2251 2.6712 24.2088C2.64446 24.1618 2.61704 24.1311 2.58961 24.1004C2.55801 24.0529 2.52641 24.0054 2.48122 23.9393C2.42957 23.8754 2.39152 23.8301 2.35347 23.7849C2.35347 23.7849 2.35134 23.79 2.35063 23.7747C2.30169 23.6993 2.25345 23.6392 2.20521 23.579C2.20521 23.579 2.19671 23.5769 2.1986 23.5646C2.15634 23.4906 2.11218 23.429 2.06802 23.3673C2.01254 23.2747 1.95706 23.1821 1.88901 23.0705C1.8622 23.034 1.84795 23.0165 1.8337 22.999C1.8337 22.999 1.83448 22.9976 1.83156 22.9841C1.75098 22.8475 1.67331 22.7246 1.59564 22.6016C1.58757 22.5803 1.5795 22.559 1.56145 22.517C1.51503 22.4356 1.47859 22.3748 1.44216 22.3141C1.43612 22.2951 1.43009 22.2761 1.41745 22.2428C1.41085 22.2284 1.3966 22.2204 1.3966 22.2204C1.39211 22.2061 1.38762 22.1918 1.37268 22.1586C1.34849 22.1205 1.33475 22.1013 1.321 22.0821C1.24575 21.9194 1.1705 21.7566 1.08655 21.5698C1.0538 21.5011 1.02975 21.4565 1.00571 21.4119C0.984611 21.3524 0.963513 21.293 0.93281 21.2095C0.8854 21.0979 0.847593 21.0103 0.809787 20.9228C0.809787 20.9228 0.810753 20.9086 0.806995 20.8906C0.789554 20.8438 0.775869 20.815 0.762182 20.7862C0.761783 20.7782 0.761384 20.7701 0.756114 20.7381C0.726436 20.657 0.701627 20.6 0.676818 20.543C0.638472 20.4196 0.600124 20.2962 0.556226 20.1487C0.540772 20.1057 0.53087 20.0868 0.520967 20.0679C0.489461 19.9436 0.457956 19.8192 0.418931 19.6684C0.396622 19.5985 0.381832 19.5551 0.367041 19.5117C0.350002 19.4256 0.332962 19.3394 0.312379 19.2307C0.301752 19.1927 0.294667 19.1771 0.287583 19.1615C0.284662 19.1295 0.281741 19.0975 0.275033 19.0408C0.262385 18.9969 0.253524 18.9776 0.244664 18.9584C0.243483 18.9399 0.242302 18.9215 0.237623 18.8801C0.225497 18.8377 0.216868 18.8182 0.20824 18.7988C0.204249 18.7556 0.200259 18.7124 0.192743 18.6449C0.181348 18.6011 0.173479 18.5816 0.165609 18.5622C0.154079 18.4665 0.142548 18.3707 0.128625 18.2443C0.118729 18.1839 0.111227 18.1543 0.107838 18.1146C0.104697 18.0851 0.097441 18.0655 0.0921869 18.03C0.0875276 17.9718 0.08087 17.9297 0.0774789 17.8731C0.0700475 17.8024 0.0593495 17.7463 0.0486504 17.6901C0.0449474 17.6081 0.0412444 17.5262 0.0361318 17.4135C0.0259706 17.3137 0.0172202 17.2445 0.00846987 17.1754C0.00701672 16.8836 0.00556477 16.5918 0.00504372 16.2658C0.00398226 16.1759 0.00199114 16.12 0 16.0642C0.00502317 15.9701 0.0100463 15.876 0.0197493 15.7518C0.0254302 15.6511 0.0264312 15.5805 0.0274334 15.5099C0.0363808 15.429 0.0453282 15.3481 0.059497 15.239C0.0649591 15.1675 0.0651984 15.1242 0.0723506 15.065C0.0826701 14.9913 0.0860769 14.9336 0.0961885 14.8674C0.101217 14.8386 0.0995398 14.8182 0.105892 14.7843C0.115773 14.7397 0.117627 14.7087 0.11948 14.6777C0.123899 14.6593 0.128317 14.6409 0.135951 14.6062C0.139165 14.5898 0.141899 14.5795 0.141899 14.5795L0.132498 14.5746C0.144632 14.5153 0.156766 14.4559 0.174423 14.3701C0.179372 14.3229 0.178799 14.3023 0.178225 14.2817C0.192982 14.2151 0.207739 14.1485 0.231257 14.0523C0.25073 13.9527 0.261444 13.8826 0.272158 13.8125C0.272158 13.8125 0.273888 13.8015 0.279632 13.7912C0.290679 13.7498 0.295982 13.7187 0.301286 13.6876C0.323021 13.6055 0.344754 13.5234 0.373194 13.4176C0.381993 13.3727 0.384086 13.3517 0.393505 13.3186C0.404773 13.2789 0.408715 13.2512 0.412657 13.2236C0.425077 13.1896 0.437498 13.1557 0.458362 13.0969C0.495368 12.9782 0.522656 12.8838 0.552737 12.7904C0.630841 12.5478 0.710174 12.3056 0.789016 12.0632C0.807428 12.0201 0.82584 11.9771 0.854799 11.9107C0.99235 11.5905 1.11935 11.2937 1.24635 10.9969C1.27138 10.9524 1.2964 10.9078 1.33334 10.8427C1.36461 10.7751 1.38395 10.7281 1.40329 10.6811C1.40329 10.6811 1.40221 10.6772 1.41338 10.6719C1.69325 10.2247 1.95701 9.77982 2.23279 9.34252C2.36501 9.13285 2.51998 8.93753 2.66465 8.73572C2.66465 8.73572 2.66632 8.73609 2.67769 8.72947C3.14612 8.16232 3.63003 7.62729 4.17859 7.15363C4.36193 6.99533 4.54516 6.8369 4.72844 6.67853C4.72844 6.67853 4.72603 6.67657 4.7404 6.67486C4.80242 6.6379 4.85049 6.60321 4.89765 6.56732C5.57143 6.05463 6.29013 5.61508 7.05088 5.2439C8.24074 4.66334 9.49797 4.31222 10.8055 4.12171C12.0103 3.94619 13.2127 3.96382 14.4112 4.15323C15.4567 4.31846 16.4683 4.61156 17.4398 5.03778C19.0564 5.74698 20.4717 6.73748 21.6615 8.0452C21.8254 8.22531 21.9894 8.40533 22.1533 8.58539C22.197 8.64588 22.2407 8.70637 22.2993 8.78636C22.4593 8.99424 22.6044 9.18262 22.7496 9.371C22.7496 9.371 22.7508 9.37005 22.7526 9.38337C22.791 9.44542 22.8275 9.49415 22.864 9.54289C22.8725 9.56144 22.8809 9.57999 22.9009 9.61669C22.963 9.70645 23.0135 9.77807 23.0639 9.84969C23.0639 9.84969 23.0661 9.8452 23.0661 9.85956C23.0982 9.92096 23.1303 9.968 23.1624 10.015C23.1858 10.0604 23.2092 10.1057 23.2458 10.1732C23.4446 10.5415 23.6302 10.8875 23.8158 11.2336C23.8391 11.292 23.8623 11.3505 23.8945 11.4323C23.9272 11.5003 23.951 11.5449 23.9748 11.5896C23.9914 11.6375 24.0079 11.6855 24.0348 11.7575C24.075 11.8495 24.1049 11.9174 24.1348 11.9853C24.1578 12.0566 24.1808 12.128 24.2119 12.2244C24.2438 12.307 24.2676 12.3646 24.2913 12.4221C24.3031 12.4664 24.3149 12.5107 24.3334 12.5818C24.3778 12.7176 24.4156 12.8267 24.4533 12.9357C24.4764 13.0326 24.4996 13.1295 24.529 13.2521C24.548 13.3089 24.5606 13.34 24.5732 13.3711C24.6078 13.5338 24.6424 13.6965 24.6829 13.8876C24.7033 13.9719 24.7178 14.0279 24.7324 14.0839C24.7499 14.2059 24.7674 14.3279 24.7883 14.4748C24.799 14.5193 24.8062 14.539 24.8134 14.5586C24.8168 14.6146 24.8201 14.6706 24.8262 14.7571C24.8499 14.9095 24.8708 15.0313 24.8917 15.1532C24.8914 15.1712 24.891 15.1891 24.8922 15.2369C24.9065 15.374 24.9192 15.4813 24.9318 15.5887C24.9326 15.6441 24.9334 15.6995 24.9344 15.7893C24.9415 16.1814 24.9483 16.5392 24.9551 16.8971C24.9457 17.0304 24.9363 17.1637 24.9218 17.3286C24.9112 17.4566 24.9056 17.5532 24.9001 17.6498C24.8958 17.6796 24.8914 17.7093 24.8812 17.7667C24.8613 17.918 24.8471 18.0418 24.833 18.1655C24.8246 18.2202 24.8162 18.2748 24.8026 18.3545C24.7971 18.4005 24.7968 18.4215 24.7965 18.4425C24.7875 18.4844 24.7785 18.5262 24.7623 18.5967C24.7278 18.7759 24.7004 18.9265 24.6731 19.0771C24.6655 19.1061 24.658 19.1352 24.6429 19.1912C24.5763 19.4476 24.5214 19.6781 24.4575 19.9062C24.033 21.422 23.3225 22.7938 22.3708 24.0439C22.2397 24.216 22.1112 24.39 21.9815 24.5632C21.9815 24.5632 21.9826 24.5664 21.969 24.5705C21.6804 24.8626 21.405 25.1504 21.1307 25.4392C21.0954 25.4764 21.0662 25.5192 21.0342 25.5595C21.0342 25.5595 21.0434 25.565 21.026 25.5653C20.9129 25.6577 20.8172 25.7499 20.7215 25.8421C20.7215 25.8421 20.7281 25.8469 20.7126 25.847C20.0078 26.4203 19.2941 26.9574 18.4806 27.3798C18.4473 27.2634 18.4207 27.1704 18.3941 27.0774C18.3823 27.0078 18.3706 26.9382 18.3549 26.8387C18.3242 26.7008 18.2973 26.5928 18.2705 26.4848C18.2687 26.4544 18.2669 26.4239 18.2617 26.3689C18.2494 26.325 18.2407 26.3057 18.232 26.2863C18.2296 26.2559 18.2272 26.2254 18.221 26.1708C18.2089 26.1271 18.2006 26.1077 18.1923 26.0882C18.192 26.0703 18.1917 26.0524 18.1885 26.006C18.1477 25.8166 18.1098 25.6557 18.0719 25.4948C18.0684 25.4613 18.065 25.4279 18.0569 25.3743C18.0513 25.3446 18.0462 25.3382 18.0371 25.3349C18.0364 25.3171 18.0357 25.2993 18.0327 25.2533C18.0188 25.1609 18.0147 25.0941 17.9939 25.033C17.9566 24.9231 17.9833 24.8482 18.0829 24.7854C18.1932 24.7159 18.2993 24.638 18.4004 24.5554C18.6426 24.3575 18.8808 24.1547 19.1207 23.954C19.1207 23.954 19.1374 23.948 19.15 23.9402C19.1722 23.927 19.1764 23.9187 19.175 23.9076C19.2011 23.8885 19.2273 23.8694 19.2714 23.8352C19.3488 23.758 19.4083 23.6958 19.4679 23.6336C19.4812 23.6321 19.4915 23.6257 19.514 23.6004C19.6976 23.4115 19.8751 23.2446 20.032 23.0602C20.2222 22.8365 20.395 22.5981 20.5754 22.3661C20.5754 22.3661 20.5726 22.3634 20.5853 22.3589C20.7974 22.0394 20.9968 21.7245 21.1963 21.4095C21.1963 21.4095 21.2042 21.405 21.2083 21.4009C21.2125 21.3969 21.2099 21.385 21.2099 21.385C21.2277 21.3563 21.2455 21.3275 21.2778 21.2749C21.3158 21.1994 21.3393 21.1476 21.3628 21.0958C21.3628 21.0958 21.3717 21.087 21.3821 21.0715C21.4357 20.9626 21.4789 20.8691 21.5287 20.7713C21.5434 20.7582 21.5449 20.7484 21.5398 20.7375C21.5615 20.6954 21.5832 20.6533 21.6156 20.5904C21.6301 20.5556 21.634 20.5416 21.6439 20.5254C21.657 20.515 21.6563 20.5075 21.6478 20.5008C21.6848 20.4187 21.7218 20.3366 21.7699 20.2304C21.8521 20.0012 21.9231 19.7961 21.9941 19.591C21.999 19.578 22.0039 19.565 22.0177 19.5308C22.0635 19.3778 22.1004 19.246 22.1372 19.1141C22.1436 19.0972 22.15 19.0802 22.1646 19.0388C22.1867 18.9419 22.2007 18.8695 22.2147 18.7972C22.2208 18.7798 22.2269 18.7625 22.2403 18.7199C22.2622 18.6099 22.2768 18.5251 22.2914 18.4403C22.2979 18.423 22.3043 18.4057 22.3179 18.3648C22.3263 18.3083 22.3275 18.2754 22.3288 18.2426C22.3364 18.2129 22.3439 18.1831 22.3581 18.1264C22.369 18.0416 22.3734 17.9837 22.3777 17.9259C22.3822 17.9081 22.3866 17.8903 22.3977 17.8473C22.4076 17.7642 22.411 17.7064 22.4144 17.6485C22.4209 17.6062 22.4274 17.5639 22.44 17.4933C22.4496 17.3942 22.4531 17.3233 22.4566 17.2525C22.4616 17.2224 22.4666 17.1923 22.4774 17.1338C22.4873 16.8625 22.4945 16.6197 22.4938 16.377C22.4935 16.2736 22.4767 16.1704 22.4673 16.067C22.4671 16.0113 22.4668 15.9555 22.466 15.8674C22.453 15.7406 22.4406 15.6462 22.4282 15.5519C22.4269 15.5088 22.4256 15.4657 22.4224 15.3942C22.4107 15.3219 22.4009 15.2779 22.3911 15.234C22.3882 15.1783 22.3853 15.1225 22.3803 15.0395C22.3687 14.9807 22.3591 14.9492 22.3495 14.9178C22.348 14.8855 22.3465 14.8532 22.3425 14.7952C22.3309 14.7413 22.3217 14.7133 22.3126 14.6853C22.3124 14.6722 22.3123 14.6591 22.307 14.6216C22.2829 14.5179 22.2638 14.4386 22.2447 14.3593C22.2206 14.2332 22.1964 14.1072 22.1686 13.9643C22.1651 13.9475 22.1539 13.9378 22.1539 13.9378C22.1518 13.9172 22.1498 13.8966 22.1437 13.8512C22.1295 13.8075 22.1194 13.7886 22.1093 13.7697C22.1059 13.7481 22.1025 13.7266 22.0944 13.6875C22.089 13.6612 22.0841 13.6567 22.0753 13.6564C22.0551 13.5825 22.035 13.5086 22.0077 13.4075C21.9606 13.2714 21.9205 13.1625 21.8804 13.0537C21.8628 12.9932 21.8452 12.9327 21.8176 12.8496C21.788 12.781 21.7683 12.735 21.7486 12.6891C21.7486 12.6891 21.7466 12.672 21.7384 12.6521C21.716 12.6075 21.7018 12.5828 21.6876 12.5581C21.6876 12.5581 21.6912 12.5473 21.6869 12.5284C21.6099 12.3483 21.544 12.1838 21.4632 12.0269C21.3587 11.824 21.2424 11.6273 21.1312 11.4279C21.1075 11.3822 21.0838 11.3365 21.0486 11.268C20.8303 10.9479 20.6235 10.6507 20.4166 10.3535C20.4172 10.3415 20.4133 10.3313 20.3926 10.3057C19.996 9.79578 19.568 9.34378 19.0965 8.93401C18.9491 8.80594 18.789 8.69248 18.6348 8.57233C18.6348 8.57233 18.6308 8.57585 18.6276 8.56264C18.5903 8.51835 18.5588 8.48368 18.5217 8.45671C17.9279 8.02516 17.3045 7.64156 16.6303 7.35027C16.4949 7.29177 16.3214 7.31761 16.1652 7.31436C16.1362 7.31376 16.1013 7.35608 16.0775 7.38543C15.8741 7.63651 15.6712 7.88801 15.4709 8.14158C15.0213 8.71081 14.5726 9.2807 14.1255 9.8519C14.0597 9.93595 13.9905 9.97267 13.8754 9.96897C13.5992 9.96008 13.3222 9.97451 13.0286 9.97462C12.9302 9.97317 12.8488 9.97663 12.7529 9.97565C12.7089 9.97412 12.6792 9.97704 12.6317 9.97497C12.4007 9.97319 12.1876 9.97638 11.9565 9.97514C11.6486 9.97113 11.3587 9.96904 11.0688 9.97336C10.9684 9.97485 10.8913 9.9462 10.8298 9.86452C10.7466 9.7542 10.6574 9.64845 10.5708 9.54071C10.3978 9.32543 10.2248 9.11014 10.0517 8.88855C10.0474 8.8735 10.0405 8.86962 10.0308 8.87061Z" fill="#007AFF"/>
<path d="M16.8116 25.2149C16.8411 25.3766 16.8706 25.5383 16.9038 25.7267C16.9168 25.7847 16.926 25.816 16.9352 25.8472C16.9496 25.9307 16.964 26.0141 16.9822 26.1219C16.9945 26.1658 17.0028 26.1853 17.0111 26.2048C17.0181 26.2532 17.025 26.3015 17.0355 26.3657C17.0391 26.3816 17.049 26.3907 17.049 26.3907C17.0523 26.4244 17.0557 26.4581 17.0628 26.517C17.0744 26.5618 17.0823 26.5815 17.0902 26.6011C17.0931 26.6318 17.096 26.6625 17.1027 26.7167C17.1144 26.7599 17.1223 26.7795 17.1301 26.7991C17.1365 26.8468 17.1429 26.8946 17.1528 26.9597C17.1562 26.977 17.1675 26.9872 17.1675 26.9872C17.1694 27.0088 17.1712 27.0304 17.1765 27.0785C17.1902 27.135 17.2005 27.1649 17.2108 27.1948C17.2169 27.2428 17.2229 27.2907 17.2322 27.3558C17.2354 27.3729 17.2466 27.3829 17.2466 27.3829C17.2479 27.4032 17.2492 27.4236 17.2538 27.4706C17.268 27.5286 17.2787 27.5599 17.2895 27.5913C17.2962 27.6397 17.3029 27.6881 17.3132 27.7521C17.3168 27.7677 17.3264 27.7768 17.3264 27.7768C17.3446 27.8768 17.3628 27.9769 17.3856 28.1053C17.4089 28.2038 17.4276 28.274 17.4463 28.3442C17.449 28.3747 17.4517 28.4052 17.4578 28.4596C17.469 28.5032 17.477 28.5229 17.485 28.5426C17.5077 28.6655 17.5305 28.7883 17.5575 28.941C17.5838 29.0674 17.6059 29.1641 17.6279 29.2607C17.6551 29.4249 17.6822 29.5891 17.7092 29.7735C17.7089 29.7937 17.7131 29.8017 17.7131 29.8017C17.7063 29.8093 17.6996 29.8168 17.6749 29.8425C17.6241 29.8962 17.5913 29.9319 17.5585 29.9676C17.5585 29.9676 17.561 29.9696 17.5477 29.9731C17.4362 30.0792 17.338 30.1819 17.2397 30.2846C17.2264 30.2854 17.2158 30.2913 17.1929 30.315C17.1457 30.3659 17.1136 30.4039 17.0816 30.442C17.0816 30.442 17.0849 30.445 17.0719 30.4476C17.0139 30.5004 16.969 30.5507 16.924 30.601C16.924 30.601 16.9271 30.6033 16.9136 30.6066C16.6963 30.8183 16.4926 31.0268 16.2888 31.2353C16.2754 31.2366 16.265 31.2429 16.243 31.2677C16.1961 31.3185 16.1638 31.3558 16.1315 31.3931C16.1315 31.3931 16.1347 31.3956 16.1211 31.3987C15.9912 31.5168 15.8734 31.6304 15.7588 31.747C15.5254 31.9846 15.2938 32.2238 15.0614 32.4624C15.0614 32.4624 15.0652 32.4646 15.0511 32.4667C14.8191 32.691 14.6011 32.9131 14.3831 33.1352C14.3704 33.1362 14.3607 33.142 14.3387 33.1658C14.2382 33.2692 14.1528 33.3595 14.0675 33.4498C14.0675 33.4498 14.0727 33.4533 14.0585 33.4544C13.9992 33.5063 13.954 33.5571 13.9088 33.608C13.9088 33.608 13.9146 33.612 13.9 33.613C13.8389 33.6652 13.7924 33.7164 13.7459 33.7677C13.4737 34.0329 13.2016 34.2981 12.9126 34.5804C12.874 34.6242 12.8522 34.6509 12.8304 34.6776C12.8195 34.6783 12.8111 34.6833 12.7907 34.7053C12.6911 34.8111 12.6061 34.9039 12.521 34.9968C12.505 34.9998 12.489 35.0028 12.4543 34.9951C12.3761 34.9236 12.3166 34.8627 12.2732 34.802C12.4098 34.8113 12.4515 34.7511 12.4523 34.6356C12.4536 34.4342 12.4252 34.2345 12.4464 34.0309C12.4712 33.7919 12.4615 33.5495 12.4685 33.3087C12.4718 33.1939 12.4825 33.0793 12.4837 32.9646C12.4851 32.8429 12.4803 32.721 12.4762 32.5993C12.4704 32.4256 12.4554 32.2519 12.458 32.0783C12.461 31.8819 12.4837 31.6858 12.489 31.4894C12.4935 31.3248 12.4873 31.1598 12.4823 30.995C12.4741 30.7283 12.4568 30.4618 12.4557 30.1951C12.455 30.0385 12.4863 29.8819 12.4888 29.725C12.4942 29.3754 12.4861 29.0255 12.4921 28.6759C12.4956 28.4729 12.5172 28.2702 12.5276 28.0673C12.531 28.0017 12.5277 27.9354 12.5224 27.8699C12.514 27.7657 12.4919 27.6618 12.4918 27.5578C12.49 25.1757 12.4904 22.7937 12.4903 20.4116C12.4903 20.3457 12.5056 20.2739 12.4852 20.2147C12.3824 19.9178 12.5074 19.618 12.4645 19.3177C12.4389 19.1389 12.5092 18.9491 12.4542 18.7635C12.4436 18.7276 12.4536 18.6849 12.4571 18.6456C12.4674 18.5284 12.4897 18.4112 12.4889 18.2941C12.478 16.7551 12.5165 15.216 12.4538 13.6771C12.4162 12.7558 12.4958 11.8322 12.4125 10.9109C12.3965 10.7347 12.3907 10.7181 12.2165 10.6719C12.1721 10.6601 12.1284 10.6444 12.0833 10.6376C12.0011 10.6251 11.9736 10.5744 11.9935 10.4942C12.5927 10.4893 13.1738 10.489 13.7587 10.4945C13.7748 10.4998 13.787 10.4995 13.8058 10.501C13.8123 10.5029 13.8259 10.5031 13.8259 10.5031C13.836 10.5651 13.8461 10.6271 13.8598 10.7124C13.8705 10.7551 13.8774 10.7745 13.8844 10.7939C13.8877 10.8249 13.891 10.8558 13.8978 10.9103C13.9089 10.9531 13.9164 10.9725 13.924 10.9919C13.9529 11.1411 13.9818 11.2902 14.0146 11.4638C14.0261 11.5079 14.0338 11.5274 14.0415 11.5469C14.0448 11.5778 14.0481 11.6086 14.0552 11.663C14.0667 11.7058 14.0745 11.7252 14.0823 11.7446C14.0992 11.8411 14.1161 11.9375 14.1369 12.0582C14.1482 12.1017 14.1555 12.121 14.1629 12.1404C14.1642 12.1591 14.1656 12.1778 14.1705 12.219C14.1819 12.2611 14.1897 12.2807 14.1975 12.3003C14.1982 12.3184 14.1988 12.3365 14.2023 12.3796C14.2154 12.436 14.2257 12.4674 14.2359 12.4988C14.2804 12.7395 14.325 12.9803 14.3734 13.246C14.3846 13.2904 14.3919 13.3098 14.3992 13.3292C14.4004 13.3478 14.4016 13.3664 14.4061 13.4076C14.4182 13.4497 14.4269 13.4692 14.4356 13.4887C14.4522 13.5849 14.4688 13.6811 14.4893 13.8015C14.5007 13.8453 14.5083 13.8649 14.516 13.8845C14.5185 13.9152 14.521 13.9458 14.527 14.0003C14.5384 14.0437 14.5463 14.0634 14.5542 14.083C14.555 14.1011 14.5558 14.1193 14.5598 14.1623C14.5741 14.2182 14.5851 14.2492 14.5961 14.2803C14.6029 14.3293 14.6096 14.3783 14.6212 14.4412C14.626 14.4552 14.6328 14.4636 14.6328 14.4636C14.637 14.4982 14.6412 14.5328 14.6496 14.5926C14.6613 14.6373 14.6688 14.6568 14.6762 14.6762C14.6794 14.7072 14.6826 14.7381 14.6896 14.7926C14.7011 14.8354 14.7088 14.8547 14.7166 14.8741C14.7181 14.8927 14.7196 14.9114 14.7245 14.9525C14.7357 14.9946 14.7435 15.0144 14.7512 15.0341C14.756 15.0774 14.7608 15.1206 14.7697 15.188C14.7815 15.2314 14.7891 15.2506 14.7967 15.2699C14.8152 15.3678 14.8338 15.4657 14.8579 15.5921C14.8802 15.6888 14.8968 15.7569 14.9135 15.825C14.9334 15.9401 14.9532 16.0552 14.9767 16.1849C14.9804 16.1995 14.9893 16.2085 14.9893 16.2085C14.993 16.2425 14.9966 16.2766 15.0048 16.3399C15.0297 16.4521 15.0499 16.5351 15.0701 16.618C15.0865 16.7143 15.1029 16.8105 15.1235 16.931C15.1354 16.9747 15.1431 16.9942 15.1508 17.0137C15.1538 17.0447 15.1567 17.0756 15.1646 17.134C15.19 17.2442 15.2106 17.3268 15.2312 17.4094C15.2342 17.4404 15.2373 17.4714 15.2441 17.5259C15.2551 17.5689 15.2624 17.5885 15.2696 17.608C15.273 17.6388 15.2764 17.6697 15.2836 17.724C15.2951 17.7669 15.3028 17.7863 15.3104 17.8057C15.3137 17.8363 15.3169 17.8669 15.3247 17.9243C15.3479 18.022 15.3664 18.0928 15.3849 18.1637C15.3874 18.194 15.3898 18.2243 15.3957 18.2805C15.4094 18.3374 15.4197 18.3685 15.4299 18.3996C15.4333 18.4307 15.4367 18.4617 15.444 18.5162C15.4551 18.559 15.4622 18.5785 15.4693 18.5979C15.4811 18.668 15.4929 18.7381 15.5081 18.8351C15.522 18.8933 15.5326 18.9247 15.5432 18.956C15.5482 18.9993 15.5531 19.0425 15.5624 19.1099C15.5738 19.1533 15.581 19.1727 15.5882 19.1921C15.5927 19.2264 15.5972 19.2607 15.6053 19.3137C15.609 19.3408 15.6132 19.3456 15.6217 19.3466C15.6343 19.4181 15.6468 19.4895 15.6628 19.5892C15.679 19.6607 15.6917 19.704 15.7044 19.7474C15.7207 19.8437 15.737 19.94 15.7574 20.0605C15.7688 20.1044 15.7762 20.124 15.7836 20.1436C15.7866 20.1743 15.7896 20.2049 15.797 20.2631C15.8219 20.3737 15.8424 20.4567 15.8628 20.5397C15.8693 20.5875 15.8757 20.6353 15.8854 20.7006C15.8887 20.7181 15.8998 20.729 15.8998 20.729C15.9068 20.7788 15.9138 20.8287 15.9242 20.8975C15.9276 20.9165 15.9392 20.9283 15.9392 20.9283C15.9493 20.9881 15.9595 21.0479 15.9742 21.1361C15.9936 21.2202 16.0085 21.2758 16.0234 21.3315C16.0265 21.3624 16.0297 21.3934 16.0371 21.4478C16.0488 21.4906 16.0563 21.5099 16.0638 21.5293C16.0889 21.665 16.114 21.8008 16.1424 21.964C16.1561 22.0228 16.1667 22.0542 16.1772 22.0855C16.1818 22.1287 16.1863 22.1719 16.1951 22.2393C16.2067 22.2829 16.2142 22.3023 16.2218 22.3217C16.247 22.4573 16.2722 22.5929 16.3007 22.7561C16.3148 22.8152 16.3257 22.8466 16.3365 22.8781C16.357 22.9926 16.3776 23.1072 16.402 23.2366C16.4059 23.2514 16.4153 23.2604 16.4153 23.2604C16.4459 23.4266 16.4766 23.5928 16.5111 23.7838C16.5226 23.828 16.5302 23.8475 16.5378 23.8669C16.5415 23.8979 16.5453 23.9288 16.5528 23.9831C16.5637 24.0259 16.5709 24.0454 16.5781 24.0648C16.5812 24.0956 16.5842 24.1265 16.5917 24.1843C16.6152 24.2817 16.6344 24.352 16.6536 24.4224C16.6566 24.4529 16.6597 24.4834 16.666 24.5377C16.6775 24.5812 16.6856 24.6008 16.6938 24.6204C16.7199 24.769 16.7459 24.9176 16.7756 25.0937C16.79 25.1524 16.8008 25.1836 16.8116 25.2149Z" fill="#006CE2"/>
<path d="M11.9756 10.4989C11.9738 10.5745 12.0013 10.6252 12.0835 10.6377C12.1286 10.6445 12.1723 10.6602 12.2167 10.6719C12.3908 10.7181 12.3967 10.7348 12.4126 10.911C12.496 11.8323 12.4164 12.7559 12.454 13.6772C12.5167 15.2161 12.4782 16.7552 12.4891 18.2942C12.4899 18.4112 12.4676 18.5284 12.4573 18.6457C12.4538 18.685 12.4438 18.7276 12.4544 18.7635C12.5093 18.9492 12.4391 19.1389 12.4646 19.3178C12.5076 19.6181 12.3826 19.9178 12.4853 20.2148C12.5058 20.274 12.4904 20.3458 12.4905 20.4117C12.4906 22.7938 12.4902 25.1758 12.492 27.5579C12.4921 27.6619 12.5141 27.7658 12.5226 27.87C12.5279 27.9355 12.5312 28.0018 12.5278 28.0674C12.5174 28.2703 12.4958 28.473 12.4923 28.676C12.4863 29.0256 12.4943 29.3755 12.489 29.7251C12.4865 29.8819 12.4552 30.0385 12.4559 30.1952C12.457 30.4618 12.4743 30.7284 12.4825 30.9951C12.4875 31.1598 12.4937 31.3248 12.4892 31.4894C12.4839 31.6859 12.4611 31.882 12.4582 32.0784C12.4556 32.252 12.4706 32.4257 12.4764 32.5994C12.4805 32.7211 12.4853 32.843 12.4839 32.9647C12.4827 33.0794 12.472 33.194 12.4687 33.3087C12.4617 33.5496 12.4714 33.792 12.4466 34.0309C12.4254 34.2346 12.4538 34.4343 12.4525 34.6357C12.4517 34.7512 12.41 34.8113 12.2645 34.7942C12.2196 34.773 12.1998 34.7599 12.1799 34.7468C12.1791 34.7359 12.1741 34.7275 12.1521 34.7075C12.0995 34.6598 12.0597 34.6263 12.02 34.5929C11.9099 34.4807 11.7998 34.3685 11.6739 34.239C11.633 34.2013 11.6079 34.181 11.5828 34.1606C11.5129 34.0867 11.443 34.0127 11.357 33.9212C11.3027 33.8707 11.2644 33.8376 11.2262 33.8045C11.2248 33.7918 11.2188 33.7819 11.1948 33.7598C11.0907 33.6593 10.9997 33.5739 10.9088 33.4886C10.8906 33.4662 10.8724 33.4439 10.84 33.4058C10.8006 33.37 10.7755 33.35 10.7504 33.3299C10.7491 33.3171 10.743 33.3071 10.7195 33.2857C10.6818 33.2512 10.6566 33.2312 10.6315 33.2112C10.5874 33.1631 10.5433 33.1151 10.4838 33.05C10.4301 33.0003 10.3919 32.9678 10.3537 32.9352C10.2957 32.874 10.2377 32.8128 10.1632 32.7344C10.0837 32.6579 10.0206 32.5988 9.95759 32.5396C9.62359 32.2008 9.2896 31.862 8.93931 31.5051C8.84553 31.4146 8.76806 31.3422 8.69059 31.2698C8.65824 31.2351 8.62589 31.2004 8.57774 31.15C8.531 31.1105 8.50005 31.0865 8.46911 31.0625C8.46911 31.0625 8.46544 31.0633 8.46238 31.0505C8.42996 31.0115 8.4006 30.9854 8.37125 30.9592C8.36912 30.9453 8.36219 30.9345 8.33672 30.9118C8.28634 30.8646 8.24969 30.8323 8.21304 30.8C8.1555 30.7375 8.09796 30.675 8.02405 30.5959C7.97058 30.547 7.93349 30.5148 7.8964 30.4825C7.89453 30.4688 7.88778 30.4581 7.86246 30.4357C7.81185 30.3886 7.77494 30.3563 7.73802 30.324C7.73611 30.3103 7.72935 30.2996 7.70406 30.2772C7.65331 30.2305 7.61625 30.1985 7.57919 30.1666C7.52083 30.1043 7.46247 30.0421 7.38652 29.9614C7.25581 29.8568 7.22706 29.7449 7.2625 29.6101C7.27221 29.5732 7.26851 29.5328 7.27096 29.4939C7.2813 29.4519 7.29165 29.4099 7.30836 29.3417C7.31848 29.2825 7.32223 29.2495 7.32599 29.2165C7.33102 29.1991 7.33606 29.1817 7.34819 29.1387C7.38166 28.9626 7.40803 28.8123 7.43439 28.6619C7.44281 28.6325 7.45123 28.6031 7.46568 28.5501C7.47298 28.5056 7.47426 28.4846 7.47553 28.4636C7.48373 28.4342 7.49192 28.4049 7.5074 28.3487C7.53968 28.1843 7.56467 28.0468 7.58966 27.9093C7.59855 27.8797 7.60743 27.8502 7.62184 27.7968C7.62719 27.7524 7.627 27.7317 7.62682 27.7111C7.6365 27.6816 7.64617 27.6521 7.66267 27.5952C7.68618 27.4701 7.70286 27.3724 7.71955 27.2747C7.72493 27.2574 7.73032 27.2401 7.74233 27.1993C7.75195 27.1429 7.75494 27.1101 7.75794 27.0772C7.76487 27.0479 7.7718 27.0185 7.78499 26.966C7.79353 26.9215 7.7958 26.9003 7.79807 26.8791C7.80342 26.8615 7.80877 26.844 7.82098 26.8005C7.85889 26.6113 7.88996 26.4482 7.92102 26.2851C7.92593 26.2676 7.93083 26.2502 7.94162 26.2111C7.94942 26.1684 7.95132 26.1473 7.95322 26.1263C7.96096 26.097 7.9687 26.0678 7.98371 26.0115C8.01883 25.8337 8.04666 25.683 8.0745 25.5322C8.07988 25.5147 8.08526 25.4971 8.09705 25.4558C8.10735 25.3994 8.11124 25.3668 8.11513 25.3341C8.12042 25.3166 8.12571 25.299 8.13775 25.2551C8.17509 25.0527 8.20567 24.8766 8.23624 24.7005C8.24123 24.6829 8.24622 24.6654 8.25867 24.6223C8.30833 24.3804 8.35054 24.1641 8.39275 23.9477C8.39814 23.9303 8.40353 23.9128 8.41612 23.8693C8.47786 23.5611 8.5324 23.279 8.58695 22.9969C8.59463 22.9676 8.60232 22.9384 8.61737 22.882C8.63828 22.7978 8.65419 22.7414 8.66499 22.6839C8.72978 22.3394 8.79339 21.9947 8.85739 21.65C8.86611 21.6205 8.87483 21.5909 8.89068 21.5336C8.93255 21.3161 8.96729 21.1265 9.00203 20.9368C9.00203 20.9368 9.00462 20.9354 9.00862 20.9318C9.01261 20.9283 9.0157 20.9184 9.0157 20.9184L9.00721 20.9123C9.01904 20.8663 9.03088 20.8202 9.04851 20.748C9.05571 20.701 9.05712 20.6802 9.05852 20.6595C9.06689 20.6301 9.07525 20.6007 9.0908 20.5439C9.12284 20.3794 9.1477 20.2424 9.17257 20.1053C9.1832 20.0635 9.19383 20.0217 9.21083 19.9554C9.2196 19.9097 9.222 19.8885 9.22439 19.8672C9.23124 19.838 9.2381 19.8088 9.25266 19.7527C9.30089 19.5089 9.34141 19.292 9.38194 19.0751C9.38896 19.0458 9.39599 19.0165 9.41041 18.96C9.44577 18.7822 9.47373 18.6315 9.50169 18.4808C9.50838 18.4515 9.51507 18.4222 9.52804 18.3696C9.53668 18.3252 9.53903 18.3039 9.54138 18.2827C9.54648 18.2652 9.55158 18.2477 9.56389 18.2043C9.59881 18.0284 9.62652 17.8782 9.65422 17.7281C9.66209 17.6987 9.66996 17.6692 9.68386 17.6163C9.69129 17.5719 9.69268 17.5509 9.69407 17.5299C9.70237 17.5007 9.71065 17.4714 9.72627 17.4148C9.76138 17.237 9.78916 17.0864 9.81695 16.9359C9.8237 16.9064 9.83046 16.8769 9.84448 16.82C9.88985 16.5895 9.92795 16.3864 9.96606 16.1833C9.97484 16.1539 9.98362 16.1244 9.99785 16.0659C10.0478 15.8084 10.0923 15.5799 10.1368 15.3514C10.1416 15.3338 10.1464 15.3162 10.157 15.2766C10.1632 15.2341 10.1639 15.2134 10.1645 15.1927C10.1735 15.1635 10.1825 15.1342 10.1983 15.0775C10.2228 14.9522 10.2406 14.8545 10.2583 14.7567C10.2632 14.7394 10.268 14.7221 10.2786 14.683C10.2846 14.6403 10.285 14.6194 10.2853 14.5985C10.2938 14.5691 10.3023 14.5396 10.3172 14.4847C10.3277 14.4265 10.3318 14.3937 10.3358 14.3609C10.3411 14.3436 10.3463 14.3262 10.3589 14.2831C10.4265 13.9708 10.488 13.6845 10.5465 13.3976C10.5697 13.2836 10.5862 13.1683 10.6058 13.0536C10.6135 13.0242 10.6212 12.9947 10.6356 12.9401C10.6458 12.882 10.6493 12.849 10.6528 12.816C10.6579 12.7985 10.6631 12.7811 10.6756 12.7381C10.7123 12.5489 10.7417 12.3854 10.771 12.2218C10.7759 12.2042 10.7807 12.1865 10.7928 12.1432C10.8405 11.9014 10.8809 11.6852 10.9213 11.469C10.9294 11.4395 10.9374 11.41 10.9532 11.3535C11.0068 11.1369 11.0527 10.9472 11.1107 10.7501C11.2316 10.6406 11.3565 10.5862 11.5094 10.5968C11.6071 10.6036 11.7057 10.5967 11.8038 10.5981C11.8719 10.599 11.8963 10.562 11.9093 10.4954C11.94 10.4933 11.9578 10.4961 11.9756 10.4989Z" fill="#007AFF"/>
</svg>
