<svg width="19" height="16" viewBox="0 0 19 16" fill="none" xmlns="http://www.w3.org/2000/svg">
<path d="M11.7604 4.18531C10.5055 3.46267 8.47747 3.45878 7.23032 4.18531C5.98318 4.90796 5.99095 6.08517 7.24586 6.80781C8.50078 7.53045 10.5288 7.53045 11.7721 6.80781C13.0231 6.08128 13.0154 4.90796 11.7604 4.18531ZM11.1854 5.32367C11.0767 5.35864 10.9718 5.3936 10.8591 5.42469C10.793 5.44411 10.7542 5.448 10.7231 5.43246C10.7076 5.42469 10.692 5.40526 10.6804 5.38195C10.6065 5.26539 10.4978 5.16438 10.3462 5.0789C10.3307 5.06725 10.3113 5.05948 10.2918 5.04782C10.2452 5.02451 10.1947 5.0012 10.1364 4.98954C9.92664 4.94292 9.74404 5.02063 9.77123 5.14884C9.78289 5.21489 9.81785 5.27705 9.86059 5.33921C9.93441 5.44411 10.016 5.54901 10.0704 5.6578C10.2452 6.00746 9.86448 6.34936 9.25839 6.38433C9.03693 6.39598 8.83102 6.36878 8.63676 6.30662C8.55128 6.27943 8.48912 6.27943 8.42307 6.32216C8.36091 6.36101 8.29098 6.39987 8.22493 6.43872C8.16665 6.47368 8.10449 6.47368 8.04233 6.43872C7.99959 6.41541 7.95685 6.3921 7.91411 6.36878C7.88303 6.35324 7.85584 6.33382 7.82476 6.31439C7.76259 6.27943 7.77036 6.24057 7.83253 6.20172C7.87915 6.17453 7.92966 6.14344 7.97628 6.11625C8.08506 6.05408 8.08506 6.04631 7.9957 5.97638C7.88303 5.88702 7.78202 5.79378 7.71986 5.68888C7.66935 5.60729 7.68489 5.58786 7.80922 5.54513C7.90634 5.51404 7.99959 5.48296 8.09672 5.45188C8.16665 5.42857 8.2055 5.42469 8.23658 5.44023C8.25213 5.45188 8.26767 5.46742 8.27932 5.49462C8.34537 5.61117 8.44639 5.71996 8.57848 5.81709C8.60179 5.83263 8.6251 5.84817 8.64841 5.86371C8.71835 5.90645 8.79994 5.93753 8.89707 5.96084C9.13406 6.01523 9.35552 5.9181 9.32832 5.77047C9.32055 5.71996 9.29335 5.67334 9.26227 5.62283C9.18068 5.50239 9.07578 5.38583 9.01751 5.25762C8.92815 5.05171 8.967 4.86133 9.25839 4.7137C9.58474 4.54663 9.94995 4.53498 10.3346 4.63988C10.4939 4.68262 10.4939 4.68262 10.6143 4.61268C10.6571 4.58937 10.6959 4.56606 10.7386 4.54275C10.8319 4.49224 10.863 4.49224 10.9562 4.54275C10.9679 4.54663 10.9756 4.5544 10.9834 4.55829C11.0028 4.56995 11.0223 4.5816 11.0378 4.59326C11.2321 4.70593 11.2321 4.70593 11.0417 4.8186C10.9057 4.8963 10.9057 4.90019 11.0184 4.98954C11.1077 5.05948 11.1777 5.13718 11.2321 5.21489C11.2748 5.26928 11.2593 5.30036 11.1854 5.32367ZM18.882 6.64463L7.48286 0.0670194C7.32745 -0.0223398 7.07103 -0.0223398 6.91562 0.0670194L0.124326 4.01436C-0.0310815 4.10372 -0.0310815 4.25136 0.124326 4.3446L11.5196 10.9222C11.6789 11.0155 11.9314 11.0116 12.0868 10.9222L18.882 6.97487C19.0374 6.88551 19.0413 6.73788 18.882 6.64463ZM12.9415 9.40311C12.8794 9.34095 12.8017 9.28656 12.7123 9.23605C12.1334 8.90192 11.1971 8.90192 10.6182 9.23605C10.5755 9.26325 10.5366 9.28656 10.4978 9.31764L2.82064 4.88076C2.89446 4.84968 2.96439 4.8186 3.03044 4.77975C3.60545 4.44562 3.60156 3.90169 3.02267 3.56757C2.96051 3.5326 2.89058 3.49764 2.82064 3.47044L5.98707 1.63275C6.03757 1.6716 6.09196 1.71434 6.15413 1.7493C6.73302 2.08343 7.67323 2.08343 8.24824 1.7493C8.31429 1.71045 8.37257 1.6716 8.41919 1.62886L16.1196 6.0774C16.0186 6.11236 15.9215 6.1551 15.836 6.20561C15.261 6.53973 15.2649 7.08366 15.8438 7.41778C15.9331 7.46829 16.0341 7.51103 16.139 7.54988L12.9415 9.40311ZM13.8701 7.72471L13.3689 8.0161C13.2912 8.05884 13.1669 8.06272 13.0892 8.0161L12.2072 7.50714C12.1295 7.46052 12.1295 7.39059 12.2072 7.34397L12.7084 7.05258C12.7861 7.00984 12.9105 7.00595 12.9882 7.05258L13.8701 7.56154C13.9478 7.60816 13.9478 7.68198 13.8701 7.72471ZM6.79907 3.64139L6.29788 3.93278C6.22018 3.97551 6.09585 3.9794 6.01815 3.93278L5.13621 3.42382C5.05851 3.37719 5.05851 3.30726 5.13621 3.26064L5.6374 2.96925C5.7151 2.92651 5.83943 2.92263 5.91713 2.96925L6.79907 3.47821C6.87677 3.52483 6.87677 3.59865 6.79907 3.64139ZM18.1127 8.66881L18.9985 9.18166L11.877 13.3194L11.6439 13.1873L10.9873 12.8104L0 6.45426L0.878051 5.9453L11.8692 12.2937L18.1127 8.66881ZM18.0972 10.9106L18.983 11.4234L11.8887 15.5456L11.6594 15.4135L11.0028 15.0366L0 8.66881L0.878051 8.15985L11.8848 14.5238L18.0972 10.9106Z" fill="#3B3B3B"/>
</svg>
