<svg width="14" height="17" viewBox="0 0 14 17" fill="none" xmlns="http://www.w3.org/2000/svg">
<g clip-path="url(#clip0_7915_1237)">
<path d="M7.09888 7.1001C8.78338 7.1001 10.1489 5.73454 10.1489 4.05005C10.1489 2.36555 8.78338 1 7.09888 1C5.41439 1 4.04883 2.36555 4.04883 4.05005C4.04883 5.73454 5.41439 7.1001 7.09888 7.1001Z" stroke="#ABABAB" stroke-width="1.25"/>
<path d="M13.1983 13.1993C13.2002 13.0741 13.2002 12.9469 13.2002 12.818C13.2002 10.923 10.4691 9.38672 7.1001 9.38672C3.73111 9.38672 1 10.923 1 12.818C1 14.7131 1 16.2493 7.1001 16.2493C8.80126 16.2493 10.028 16.1298 10.9127 15.9164" stroke="#ABABAB" stroke-width="1.25" stroke-linecap="round"/>
</g>
<defs>
<clipPath id="clip0_7915_1237">
<rect width="14" height="17" fill="white"/>
</clipPath>
</defs>
</svg>
