<svg width="176" height="52" viewBox="0 0 176 52" fill="none" xmlns="http://www.w3.org/2000/svg">
<path d="M169 52H6.5C2.86 52 0 49.14 0 45.5V6.5C0 2.86 2.86 0 6.5 0H169C172.64 0 175.5 2.86 175.5 6.5V45.5C175.5 49.14 172.64 52 169 52Z" fill="black"/>
<path d="M169 1.04C171.99 1.04 174.46 3.51 174.46 6.5V45.5C174.46 48.49 171.99 50.96 169 50.96H6.5C3.51 50.96 1.04 48.49 1.04 45.5V6.5C1.04 3.51 3.51 1.04 6.5 1.04H169ZM169 0H6.5C2.86 0 0 2.99 0 6.5V45.5C0 49.14 2.86 52 6.5 52H169C172.64 52 175.5 49.14 175.5 45.5V6.5C175.5 2.99 172.64 0 169 0Z" fill="#A6A6A6"/>
<path d="M61.6203 13.2607C61.6203 14.3007 61.3603 15.2107 60.7103 15.8607C59.9303 16.6407 59.0203 17.0307 57.8503 17.0307C56.6803 17.0307 55.7703 16.6407 54.9903 15.8607C54.2103 15.0807 53.8203 14.1707 53.8203 13.0007C53.8203 11.8307 54.2103 10.9207 54.9903 10.1407C55.7703 9.3607 56.6803 8.9707 57.8503 8.9707C58.3703 8.9707 58.8903 9.1007 59.4103 9.3607C59.9303 9.6207 60.3203 9.8807 60.5803 10.2707L59.9303 10.9207C59.4103 10.2707 58.7603 10.0107 57.8503 10.0107C57.0703 10.0107 56.2903 10.2707 55.7703 10.9207C55.1203 11.4407 54.8603 12.2207 54.8603 13.1307C54.8603 14.0407 55.1203 14.8207 55.7703 15.3407C56.4203 15.8607 57.0703 16.2507 57.8503 16.2507C58.7603 16.2507 59.4103 15.9907 60.0603 15.3407C60.4503 14.9507 60.7103 14.4307 60.7103 13.7807H57.8503V12.7407H61.6203V13.2607ZM67.6003 10.0107H64.0903V12.4807H67.3403V13.3907H64.0903V15.8607H67.6003V16.9007H63.0503V9.1007H67.6003V10.0107ZM71.8903 16.9007H70.8503V10.0107H68.6403V9.1007H74.1003V10.0107H71.8903V16.9007ZM77.8703 16.9007V9.1007H78.9103V16.9007H77.8703ZM83.3303 16.9007H82.2903V10.0107H80.0803V9.1007H85.4103V10.0107H83.2003V16.9007H83.3303ZM95.6803 15.8607C94.9003 16.6407 93.9903 17.0307 92.8203 17.0307C91.6503 17.0307 90.7403 16.6407 89.9603 15.8607C89.1803 15.0807 88.7903 14.1707 88.7903 13.0007C88.7903 11.8307 89.1803 10.9207 89.9603 10.1407C90.7403 9.3607 91.6503 8.9707 92.8203 8.9707C93.9903 8.9707 94.9003 9.3607 95.6803 10.1407C96.4603 10.9207 96.8503 11.8307 96.8503 13.0007C96.8503 14.1707 96.4603 15.0807 95.6803 15.8607ZM90.7403 15.2107C91.2603 15.7307 92.0403 16.1207 92.8203 16.1207C93.6003 16.1207 94.3803 15.8607 94.9003 15.2107C95.4203 14.6907 95.8103 13.9107 95.8103 13.0007C95.8103 12.0907 95.5503 11.3107 94.9003 10.7907C94.3803 10.2707 93.6003 9.8807 92.8203 9.8807C92.0403 9.8807 91.2603 10.1407 90.7403 10.7907C90.2203 11.3107 89.8303 12.0907 89.8303 13.0007C89.8303 13.9107 90.0903 14.6907 90.7403 15.2107ZM98.2803 16.9007V9.1007H99.4503L103.22 15.2107V9.1007H104.26V16.9007H103.22L99.1903 10.5307V16.9007H98.2803Z" fill="white" stroke="white" stroke-width="1.18519" stroke-miterlimit="10"/>
<path d="M88.5297 28.3405C85.4097 28.3405 82.9397 30.6805 82.9397 33.9305C82.9397 37.0505 85.4097 39.5205 88.5297 39.5205C91.6497 39.5205 94.1197 37.1805 94.1197 33.9305C94.1197 30.5505 91.6497 28.3405 88.5297 28.3405ZM88.5297 37.1805C86.8397 37.1805 85.4097 35.7505 85.4097 33.8005C85.4097 31.8505 86.8397 30.4205 88.5297 30.4205C90.2197 30.4205 91.6497 31.7205 91.6497 33.8005C91.6497 35.7505 90.2197 37.1805 88.5297 37.1805ZM76.4397 28.3405C73.3197 28.3405 70.8497 30.6805 70.8497 33.9305C70.8497 37.0505 73.3197 39.5205 76.4397 39.5205C79.5597 39.5205 82.0297 37.1805 82.0297 33.9305C82.0297 30.5505 79.5597 28.3405 76.4397 28.3405ZM76.4397 37.1805C74.7497 37.1805 73.3197 35.7505 73.3197 33.8005C73.3197 31.8505 74.7497 30.4205 76.4397 30.4205C78.1297 30.4205 79.5597 31.7205 79.5597 33.8005C79.5597 35.7505 78.1297 37.1805 76.4397 37.1805ZM62.0097 30.0305V32.3705H67.5997C67.4697 33.6705 66.9497 34.7105 66.2997 35.3605C65.5197 36.1405 64.2197 37.0505 62.0097 37.0505C58.4997 37.0505 55.8997 34.3205 55.8997 30.8105C55.8997 27.3005 58.6297 24.5705 62.0097 24.5705C63.8297 24.5705 65.2597 25.3505 66.2997 26.2605L67.9897 24.5705C66.5597 23.2705 64.7397 22.2305 62.1397 22.2305C57.4597 22.2305 53.4297 26.1305 53.4297 30.8105C53.4297 35.4905 57.4597 39.3905 62.1397 39.3905C64.7397 39.3905 66.5597 38.6105 68.1197 36.9205C69.6797 35.3605 70.1997 33.1505 70.1997 31.4605C70.1997 30.9405 70.1997 30.4205 70.0697 30.0305H62.0097ZM121.03 31.8505C120.51 30.5505 119.21 28.3405 116.35 28.3405C113.49 28.3405 111.15 30.5505 111.15 33.9305C111.15 37.0505 113.49 39.5205 116.61 39.5205C119.08 39.5205 120.64 37.9605 121.16 37.0505L119.34 35.7505C118.69 36.6605 117.91 37.3105 116.61 37.3105C115.31 37.3105 114.53 36.7905 113.88 35.6205L121.29 32.5005L121.03 31.8505ZM113.49 33.6705C113.49 31.5905 115.18 30.4205 116.35 30.4205C117.26 30.4205 118.17 30.9405 118.43 31.5905L113.49 33.6705ZM107.38 39.0005H109.85V22.7505H107.38V39.0005ZM103.48 29.5105C102.83 28.8605 101.79 28.2105 100.49 28.2105C97.7597 28.2105 95.1597 30.6805 95.1597 33.8005C95.1597 36.9205 97.6297 39.2605 100.49 39.2605C101.79 39.2605 102.83 38.6105 103.35 37.9605H103.48V38.7405C103.48 40.8205 102.31 41.9905 100.49 41.9905C99.0597 41.9905 98.0197 40.9505 97.7597 40.0405L95.6797 40.9505C96.3297 42.3805 97.8897 44.2005 100.62 44.2005C103.48 44.2005 105.82 42.5105 105.82 38.4805V28.6005H103.48V29.5105ZM100.62 37.1805C98.9297 37.1805 97.4997 35.7505 97.4997 33.8005C97.4997 31.8505 98.9297 30.4205 100.62 30.4205C102.31 30.4205 103.61 31.8505 103.61 33.8005C103.61 35.7505 102.31 37.1805 100.62 37.1805ZM132.34 22.7505H126.49V39.0005H128.96V32.8905H132.34C135.07 32.8905 137.67 30.9405 137.67 27.8205C137.67 24.7005 135.07 22.7505 132.34 22.7505ZM132.47 30.5505H128.96V24.9605H132.47C134.29 24.9605 135.33 26.5205 135.33 27.6905C135.2 29.1205 134.16 30.5505 132.47 30.5505ZM147.42 28.2105C145.6 28.2105 143.78 28.9905 143.13 30.6805L145.34 31.5905C145.86 30.6805 146.64 30.4205 147.55 30.4205C148.85 30.4205 150.02 31.2005 150.15 32.5005V32.6305C149.76 32.3705 148.72 31.9805 147.68 31.9805C145.34 31.9805 143 33.2805 143 35.6205C143 37.8305 144.95 39.2605 147.03 39.2605C148.72 39.2605 149.5 38.4805 150.15 37.7005H150.28V39.0005H152.62V32.7605C152.36 29.9005 150.15 28.2105 147.42 28.2105ZM147.16 37.1805C146.38 37.1805 145.21 36.7905 145.21 35.7505C145.21 34.4505 146.64 34.0605 147.81 34.0605C148.85 34.0605 149.37 34.3205 150.02 34.5805C149.76 36.1405 148.46 37.1805 147.16 37.1805ZM160.81 28.6005L158.08 35.6205H157.95L155.09 28.6005H152.49L156.78 38.4805L154.31 43.9405H156.78L163.41 28.6005H160.81ZM138.97 39.0005H141.44V22.7505H138.97V39.0005Z" fill="white"/>
<path d="M13.52 9.75C13.13 10.14 13 10.79 13 11.57V40.3C13 41.08 13.26 41.73 13.65 42.12L13.78 42.25L29.9 26.13V25.87L13.52 9.75Z" fill="url(#paint0_linear_7238_1236)"/>
<path d="M35.1 31.591L29.77 26.261V25.871L35.1 20.541L35.23 20.671L41.6 24.311C43.42 25.351 43.42 27.041 41.6 28.081L35.1 31.591Z" fill="url(#paint1_linear_7238_1236)"/>
<path d="M35.23 31.46L29.77 26L13.52 42.25C14.17 42.9 15.08 42.9 16.25 42.38L35.23 31.46Z" fill="url(#paint2_linear_7238_1236)"/>
<path d="M35.23 20.5416L16.25 9.75156C15.08 9.10156 14.17 9.23156 13.52 9.88156L29.77 26.0016L35.23 20.5416Z" fill="url(#paint3_linear_7238_1236)"/>
<path opacity="0.2" d="M35.1 31.332L16.25 41.992C15.21 42.642 14.3 42.512 13.65 41.992L13.52 42.122L13.65 42.252C14.3 42.772 15.21 42.902 16.25 42.252L35.1 31.332Z" fill="black"/>
<path opacity="0.12" d="M13.52 41.99C13.13 41.6 13 40.95 13 40.17V40.3C13 41.08 13.26 41.73 13.65 42.12V41.99H13.52ZM41.6 27.69L35.1 31.33L35.23 31.46L41.6 27.82C42.51 27.3 42.9 26.65 42.9 26C42.9 26.65 42.38 27.17 41.6 27.69Z" fill="black"/>
<path opacity="0.25" d="M16.25 9.88162L41.6 24.3116C42.38 24.8316 42.9 25.3516 42.9 26.0016C42.9 25.3516 42.51 24.7016 41.6 24.1816L16.25 9.75162C14.43 8.71162 13 9.49162 13 11.5716V11.7016C13 9.75162 14.43 8.84162 16.25 9.88162Z" fill="white"/>
<defs>
<linearGradient id="paint0_linear_7238_1236" x1="28.34" y1="11.323" x2="6.5221" y2="33.1396" gradientUnits="userSpaceOnUse">
<stop stop-color="#00A0FF"/>
<stop offset="0.007" stop-color="#00A1FF"/>
<stop offset="0.26" stop-color="#00BEFF"/>
<stop offset="0.512" stop-color="#00D2FF"/>
<stop offset="0.76" stop-color="#00DFFF"/>
<stop offset="1" stop-color="#00E3FF"/>
</linearGradient>
<linearGradient id="paint1_linear_7238_1236" x1="43.9842" y1="26.0023" x2="12.5281" y2="26.0023" gradientUnits="userSpaceOnUse">
<stop stop-color="#FFE000"/>
<stop offset="0.409" stop-color="#FFBD00"/>
<stop offset="0.775" stop-color="#FFA500"/>
<stop offset="1" stop-color="#FF9C00"/>
</linearGradient>
<linearGradient id="paint2_linear_7238_1236" x1="32.2751" y1="28.9848" x2="2.68972" y2="58.5702" gradientUnits="userSpaceOnUse">
<stop stop-color="#FF3A44"/>
<stop offset="1" stop-color="#C31162"/>
</linearGradient>
<linearGradient id="paint3_linear_7238_1236" x1="9.48612" y1="0.230362" x2="22.698" y2="13.4423" gradientUnits="userSpaceOnUse">
<stop stop-color="#32A071"/>
<stop offset="0.069" stop-color="#2DA771"/>
<stop offset="0.476" stop-color="#15CF74"/>
<stop offset="0.801" stop-color="#06E775"/>
<stop offset="1" stop-color="#00F076"/>
</linearGradient>
</defs>
</svg>
