<svg width="36" height="36" viewBox="0 0 36 36" fill="none" xmlns="http://www.w3.org/2000/svg">
<rect width="36" height="36" rx="4" fill="#007AFF"/>
<path d="M21.9612 23.6356C23.6395 23.6356 25 22.2751 25 20.5969C25 18.9187 23.6395 17.5581 21.9612 17.5581H21.9442C21.9555 17.433 21.9612 17.3063 21.9612 17.1783C21.9612 14.8707 20.0905 13 17.783 13C15.4753 13 13.6046 14.8707 13.6046 17.1783C13.6046 17.1819 13.6047 17.1855 13.6047 17.1891C12.1185 17.4907 11 18.8046 11 20.3798C11 22.1779 12.4577 23.6356 14.2558 23.6356" stroke="white" stroke-width="1.5" stroke-linecap="round" stroke-linejoin="round"/>
<path d="M18.1629 23.6363V19.8379M18.1629 19.8379L19.6823 21.3573M18.1629 19.8379L16.6436 21.3573" stroke="white" stroke-width="1.5" stroke-linecap="round" stroke-linejoin="round"/>
</svg>
