<svg width="99" height="99" viewBox="0 0 99 99" fill="none" xmlns="http://www.w3.org/2000/svg">
<path d="M63.1129 92.922C66.2876 92.922 66.2876 97.75 63.1129 97.75H4.94371C3.61071 97.75 2.53027 96.6684 2.53027 95.3354V22.6412C2.53027 21.9747 2.80038 21.3702 3.23653 20.934L22.2143 1.95743C22.6855 1.4862 23.3029 1.25 23.9203 1.25H78.5138C79.8468 1.25 80.9284 2.3316 80.9284 3.66461V45.9185C80.9284 49.0943 76.1003 49.0943 76.1003 45.9185V6.07804H24.92L7.35832 23.6409V92.922H63.1129ZM22.0459 71.6431C18.8701 71.6431 18.8701 66.815 22.0459 66.815H57.9048C61.0807 66.815 61.0807 71.6431 57.9048 71.6431H22.0459ZM22.0459 39.5247C18.8701 39.5247 18.8701 34.6967 22.0459 34.6967H57.9048C61.0807 34.6967 61.0807 39.5247 57.9048 39.5247H22.0459ZM22.0459 50.2308C18.8701 50.2308 18.8701 45.4028 22.0459 45.4028H57.9048C61.0807 45.4028 61.0807 50.2308 57.9048 50.2308H22.0459ZM22.0459 60.9369C18.8701 60.9369 18.8701 56.1089 22.0459 56.1089H57.9048C61.0807 56.1089 61.0807 60.9369 57.9048 60.9369H22.0459ZM22.0459 28.8186C18.8701 28.8186 18.8701 23.9906 22.0459 23.9906H57.9048C61.0807 23.9906 61.0807 28.8186 57.9048 28.8186H22.0459ZM80.1099 56.6772C85.9376 56.6772 90.6616 61.4012 90.6616 67.229C90.6616 69.3454 90.0384 71.3157 88.9661 72.9667C93.3592 75.8818 96.1538 80.6934 96.4649 85.9693C96.6508 89.1335 91.8403 89.4153 91.6555 86.2523C91.4088 82.0791 89.0117 78.3619 85.3261 76.4021C83.7873 77.2791 82.0076 77.7795 80.1099 77.7795C78.0566 77.7795 76.1401 77.1937 74.5194 76.1788C70.6093 78.0637 68.0181 81.913 67.762 86.2523C67.5761 89.4153 62.7668 89.1335 62.9527 85.9693C63.2789 80.4526 66.3144 75.4597 71.0302 72.6066C70.096 71.0315 69.5593 69.1934 69.5593 67.229C69.5593 61.4023 74.2832 56.6772 80.1099 56.6772ZM80.1099 61.5052C76.9492 61.5052 74.3873 64.0683 74.3873 67.229C74.3873 70.3896 76.9492 72.9515 80.1099 72.9515C83.2705 72.9515 85.8336 70.3896 85.8336 67.229C85.8336 64.0683 83.2716 61.5052 80.1099 61.5052Z" fill="#AAAAAA"/>
</svg>
