<svg width="12" height="12" viewBox="0 0 12 12" fill="none" xmlns="http://www.w3.org/2000/svg">
<path d="M6.39938 9.26998C6.29681 9.37103 6.15187 9.42857 5.99986 9.42857C5.84785 9.42857 5.70291 9.37103 5.60034 9.26998L2.71311 6.42515C2.51137 6.22637 2.5267 5.91789 2.74736 5.73615C2.96802 5.5544 3.31043 5.56819 3.51218 5.76697L5.45851 7.68474V0.487685C5.45851 0.218346 5.70089 0 5.99986 0C6.29883 0 6.54121 0.218346 6.54121 0.487685V7.68474L8.48756 5.76697C8.6893 5.56819 9.03173 5.5544 9.25238 5.73615C9.47304 5.91789 9.48834 6.22637 9.28659 6.42515L6.39938 9.26998Z" fill="#007AFF"/>
<path d="M0.923077 7.37171C0.923077 7.08768 0.716443 6.85742 0.461539 6.85742C0.20664 6.85742 3.22433e-07 7.08768 3.22433e-07 7.37171V7.40935C-1.19853e-05 8.34714 -2.4337e-05 9.103 0.0717049 9.69751C0.146179 10.3147 0.305496 10.8344 0.675908 11.2471C1.04632 11.6599 1.5127 11.8374 2.06662 11.9204C2.60014 12.0003 3.27849 12.0003 4.12008 12.0003H7.87994C8.72154 12.0003 9.39988 12.0003 9.93342 11.9204C10.4873 11.8374 10.9537 11.6599 11.3241 11.2471C11.6945 10.8344 11.8538 10.3147 11.9283 9.69751C12 9.103 12 8.34714 12 7.40935V7.37171C12 7.08768 11.7934 6.85742 11.5385 6.85742C11.2836 6.85742 11.0769 7.08768 11.0769 7.37171C11.0769 8.35598 11.0759 9.04245 11.0135 9.56044C10.9527 10.0636 10.8417 10.33 10.6714 10.5198C10.501 10.7096 10.262 10.8333 9.8104 10.901C9.34554 10.9706 8.72948 10.9717 7.84615 10.9717H4.15385C3.27052 10.9717 2.65444 10.9706 2.18961 10.901C1.73806 10.8333 1.49894 10.7096 1.32862 10.5198C1.15831 10.33 1.04726 10.0636 0.986554 9.56044C0.924056 9.04245 0.923077 8.35598 0.923077 7.37171Z" fill="#007AFF"/>
</svg>
