<svg width="94" height="23" viewBox="0 0 94 23" fill="none" xmlns="http://www.w3.org/2000/svg">
<path d="M83.8858 7.64143C84.4177 7.64143 84.8555 7.36489 84.9147 7.00761L85.4398 1.06887C85.4398 0.481882 84.7521 0 83.8875 0C83.0238 0 82.3368 0.48188 82.3368 1.06897L82.8616 7.00761C82.9193 7.36479 83.3571 7.64143 83.8876 7.64143H83.8858ZM80.6762 9.49638C80.943 9.03632 80.9228 8.51926 80.6416 8.28955L75.7603 4.86543C75.2528 4.57151 74.4918 4.92529 74.06 5.67428C73.6266 6.42232 73.7034 7.25777 74.2096 7.55179L79.6146 10.0684C79.9525 10.1937 80.4132 9.95261 80.6779 9.49288L80.6762 9.49638ZM87.0984 9.4932C87.3648 9.95293 87.8231 10.1941 88.1613 10.0687L93.5664 7.55211C94.0757 7.2582 94.1481 6.42264 93.7187 5.6746C93.2847 4.92635 92.5224 4.57183 92.0163 4.86574L87.1346 8.28987C86.8555 8.51926 86.8348 9.03675 87.1001 9.49669L87.0984 9.4932ZM83.8858 15.0598C84.4177 15.0598 84.8555 15.334 84.9147 15.6916L85.4398 21.6295C85.4398 22.2183 84.7521 22.6991 83.8875 22.6991C83.0238 22.6991 82.3368 22.2183 82.3368 21.6295L82.8616 15.6916C82.9193 15.334 83.3571 15.0598 83.8876 15.0598H83.8858ZM87.0984 13.2045C87.3648 12.7435 87.8231 12.5044 88.1613 12.6311L93.5664 15.1461C94.0757 15.4403 94.1481 16.2766 93.7187 17.0253C93.2847 17.7711 92.5224 18.1266 92.0163 17.8331L87.1346 14.4121C86.8555 14.1809 86.8348 13.6631 87.1001 13.2035H87.098M80.6762 13.2038C80.943 13.6631 80.9228 14.1809 80.6416 14.4126L75.7603 17.8334C75.2528 18.1269 74.4918 17.7714 74.06 17.0256C73.6266 16.2769 73.7034 15.4406 74.2096 15.1464L79.6146 12.6315C79.9525 12.5047 80.4132 12.7438 80.6779 13.2049H80.6762" fill="#FDBB30"/>
<path d="M53.0961 14.402C53.0961 14.5843 53.0799 14.7722 53.03 14.9373C52.8229 15.6229 52.113 16.2027 51.2249 16.2027C50.4844 16.2027 49.8963 15.7821 49.8963 14.8937C49.8963 13.5339 51.3929 13.1584 53.0965 13.1679L53.0961 14.4019V14.402ZM55.7682 12.0325C55.7682 9.79036 54.8102 7.81749 51.5731 7.81749C49.9114 7.81749 48.5926 8.28422 47.8727 8.70019L48.4 10.5027C49.0578 10.0874 50.1064 9.74353 51.0986 9.74353C52.7406 9.73897 53.0095 10.6734 53.0095 11.2714V11.4129C49.4303 11.4076 47.1677 12.647 47.1677 15.1717C47.1677 16.7144 48.3201 18.1593 50.3233 18.1593C51.5541 18.1593 52.5851 17.668 53.202 16.8802H53.263C53.263 16.8802 53.6712 18.5905 55.925 17.9361C55.8073 17.2249 55.7687 16.4656 55.7687 15.5526L55.7684 12.0325M0 4.7641C0 4.7641 2.33894 14.3481 2.71243 15.9035C3.14812 17.719 3.93335 18.3874 6.19621 17.9361L7.65658 11.9944C8.02689 10.5178 8.27472 9.46508 8.51333 7.96455H8.55486C8.72238 9.48097 8.96004 10.5224 9.26476 11.9993C9.26476 11.9993 9.85895 14.6969 10.1638 16.1133C10.4689 17.5293 11.3183 18.4223 13.535 17.9361L17.015 4.76367H14.2062L13.0176 10.459C12.698 12.1162 12.4083 13.4125 12.1848 14.9282H12.145C11.9419 13.4259 11.6833 12.1824 11.3587 10.5674L10.1222 4.76367H7.19515L5.87178 10.4211C5.49723 12.1407 5.14599 13.5287 4.92349 14.994H4.88301C4.65458 13.6143 4.35049 11.8691 4.02139 10.2053C4.02139 10.2053 3.23574 6.15856 2.95941 4.76367L0 4.7641ZM22.3282 14.402C22.3282 14.5843 22.312 14.7722 22.2613 14.9373C22.0547 15.6229 21.3444 16.2027 20.4563 16.2027C19.7157 16.2027 19.1284 15.7821 19.1284 14.8937C19.1284 13.5339 20.6246 13.1584 22.3285 13.1679L22.3282 14.4019V14.402ZM25 12.0325C25 9.79036 24.042 7.81749 20.8055 7.81749C19.1434 7.81749 17.8235 8.28422 17.1041 8.70019L17.6307 10.5027C18.2885 10.0874 19.337 9.74353 20.3296 9.74353C21.9727 9.73897 22.2416 10.6734 22.2416 11.2714V11.4129C18.6609 11.4076 16.3994 12.647 16.3994 15.1717C16.3994 16.7144 17.5511 18.1593 19.5528 18.1593C20.7854 18.1593 21.8157 17.668 22.4334 16.8802H22.4936C22.4936 16.8802 22.903 18.5905 25.1562 17.9361C25.0384 17.2249 25 16.4656 25 15.5526V12.0325ZM29.4592 15.14V4.7641H26.7839V17.9366H29.4592V15.14ZM64.4577 4.7641V14.4812C64.4577 15.8215 64.7104 16.7595 65.2492 17.3336C65.7213 17.8355 66.497 18.1603 67.4273 18.1603C68.2185 18.1603 68.9965 18.0093 69.3636 17.8732L69.329 15.7831C69.0559 15.8499 68.7423 15.9039 68.3129 15.9039C67.4013 15.9039 67.0965 15.3199 67.0965 14.1172V10.3993H69.4262V7.87862H67.0965V4.7641H64.4577ZM57.5522 8.04095V17.9366H60.312V12.8698C60.312 12.5959 60.3285 12.3573 60.3719 12.1391C60.576 11.0772 61.3876 10.3993 62.5535 10.3993C62.873 10.3993 63.1018 10.434 63.3496 10.4692V7.87862C63.1416 7.8372 63.0005 7.81781 62.7417 7.81781C61.7119 7.81781 60.5401 8.48235 60.0484 9.90786H59.9738V8.04095H57.5522ZM31.3325 8.04095V17.9366H34.0213V12.1338C34.0213 11.8614 34.0533 11.5735 34.1476 11.3238C34.3704 10.7396 34.9142 10.0554 35.7819 10.0554C36.8674 10.0554 37.3743 10.9726 37.3743 12.2964V17.9358H40.0609V12.0623C40.0609 11.8025 40.0964 11.4893 40.1732 11.2603C40.3938 10.5953 40.9796 10.0546 41.7863 10.0546C42.8862 10.0546 43.4142 10.9558 43.4142 12.5139V17.9355H46.1027V12.1069C46.1027 9.03353 44.542 7.81685 42.7799 7.81685C42.0003 7.81685 41.3843 8.01213 40.8272 8.35351C40.3594 8.64171 39.9398 9.05006 39.5738 9.58682H39.534C39.1091 8.52039 38.1095 7.81738 36.8068 7.81738C35.1332 7.81738 34.381 8.66576 33.9248 9.38519H33.8847V8.04063H31.3325" fill="#1A75CF"/>
</svg>
